<svg width="432" height="52" viewBox="0 0 432 52" fill="none" xmlns="http://www.w3.org/2000/svg">
<path d="M110.475 28.4749C111.842 27.108 111.842 24.892 110.475 23.5251L88.201 1.25126C86.8342 -0.115572 84.6181 -0.115572 83.2513 1.25126C81.8844 2.6181 81.8844 4.83418 83.2513 6.20101L103.05 26L83.2513 45.799C81.8844 47.1658 81.8844 49.3819 83.2513 50.7487C84.6181 52.1156 86.8342 52.1156 88.201 50.7487L110.475 28.4749ZM0 29.5H108V22.5H0V29.5Z" fill="#9ACC5A"/>
<path d="M270.475 28.4749C271.842 27.108 271.842 24.892 270.475 23.5251L248.201 1.25126C246.834 -0.115572 244.618 -0.115572 243.251 1.25126C241.884 2.6181 241.884 4.83418 243.251 6.20101L263.05 26L243.251 45.799C241.884 47.1658 241.884 49.3819 243.251 50.7487C244.618 52.1156 246.834 52.1156 248.201 50.7487L270.475 28.4749ZM160 29.5H268V22.5H160V29.5Z" fill="#9ACC5A"/>
<path d="M430.475 28.4749C431.842 27.108 431.842 24.892 430.475 23.5251L408.201 1.25126C406.834 -0.115572 404.618 -0.115572 403.251 1.25126C401.884 2.6181 401.884 4.83418 403.251 6.20101L423.05 26L403.251 45.799C401.884 47.1658 401.884 49.3819 403.251 50.7487C404.618 52.1156 406.834 52.1156 408.201 50.7487L430.475 28.4749ZM320 29.5H428V22.5H320V29.5Z" fill="#9ACC5A"/>
</svg>
