<svg width="152" height="155" viewBox="0 0 152 155" fill="none" xmlns="http://www.w3.org/2000/svg">
<path d="M66.4228 13.6438C54.9353 15.2851 43.815 19.9224 34.3733 27.6599L54.673 47.8244C61.9642 38.4977 66.0294 26.6699 66.4228 13.6438ZM75.7858 68.7966L117.198 27.6599C106.078 18.5416 92.6498 13.7219 79.038 13.0446C78.7233 29.692 73.3992 44.9066 63.6427 56.7343L75.7858 68.7966ZM25.4561 36.5177C17.6666 45.8966 12.9982 56.9427 11.3459 68.3537C24.4594 67.9629 36.3928 63.9248 45.7558 56.6822L25.4561 36.5177ZM96.8462 89.7166C108.727 80.0512 124.044 74.7625 140.829 74.4239C140.147 60.9027 135.295 47.5639 126.116 36.5177L84.703 77.6544L96.8462 89.7166ZM75.7858 86.5121L34.3733 127.649C45.4935 136.741 58.9218 141.587 72.5337 142.264C72.8746 125.591 78.1987 110.376 87.929 98.5744L75.7858 86.5121ZM126.116 118.791C133.905 109.412 138.573 98.366 140.226 86.955C127.086 87.3719 115.179 91.41 105.816 98.6265L126.116 118.791ZM54.7255 65.5921C42.8184 75.2836 27.5018 80.5983 10.7427 80.8848C11.4246 94.406 16.2766 107.745 25.4561 118.791L66.8686 77.6544L54.7255 65.5921ZM85.1489 141.665C96.6364 140.024 107.757 135.386 117.198 127.649L96.8986 107.484C89.6337 116.785 85.5685 128.639 85.1489 141.665Z" fill="#E6DADA"/>
</svg>
