<svg width="123" height="109" viewBox="0 0 123 109" fill="none" xmlns="http://www.w3.org/2000/svg">
<path d="M95.369 64.4834H49.6416L50.6625 69.4751H92.5328C94.9352 69.4751 96.7158 71.7059 96.1834 74.0485L95.3228 77.8353C98.2384 79.2506 100.249 82.2393 100.249 85.6979C100.249 90.5651 96.2681 94.5026 91.3849 94.4324C86.7328 94.3654 82.9069 90.5902 82.7813 85.9392C82.7127 83.3986 83.7305 81.0959 85.4024 79.4582H52.6996C54.3183 81.044 55.324 83.2529 55.324 85.6979C55.324 90.6604 51.1859 94.6565 46.1721 94.4236C41.7202 94.2169 38.0995 90.6198 37.8655 86.1692C37.6849 82.7321 39.4934 79.7026 42.2412 78.1223L31.2834 24.5502H20.3824C18.3148 24.5502 16.6387 22.8741 16.6387 20.8065V18.3106C16.6387 16.243 18.3148 14.5669 20.3824 14.5669H36.3758C38.1542 14.5669 39.6871 15.8181 40.0436 17.5603L41.4734 24.5502H102.743C105.145 24.5502 106.926 26.781 106.394 29.1236L99.0196 61.5694C98.6323 63.2739 97.117 64.4834 95.369 64.4834ZM80.2822 40.7731H72.7947V34.5335C72.7947 33.155 71.6774 32.0377 70.2989 32.0377H67.8031C66.4246 32.0377 65.3073 33.155 65.3073 34.5335V40.7731H57.8198C56.4413 40.7731 55.324 41.8904 55.324 43.2689V45.7647C55.324 47.1432 56.4413 48.2605 57.8198 48.2605H65.3073V54.5001C65.3073 55.8786 66.4246 56.9959 67.8031 56.9959H70.2989C71.6774 56.9959 72.7947 55.8786 72.7947 54.5001V48.2605H80.2822C81.6607 48.2605 82.778 47.1432 82.778 45.7647V43.2689C82.778 41.8904 81.6607 40.7731 80.2822 40.7731Z" fill="#1D2FD0"/>
</svg>
