<svg width="66" height="59" viewBox="0 0 66 59" fill="none" xmlns="http://www.w3.org/2000/svg">
<path d="M57.6131 36.5278H24.1508L24.8979 40.1806H55.5376C57.2957 40.1806 58.5987 41.813 58.2091 43.5273L57.5793 46.2984C59.7129 47.3341 61.184 49.5212 61.184 52.0521C61.184 55.6138 58.2711 58.4951 54.6976 58.4438C51.2933 58.3948 48.4936 55.6321 48.4017 52.2287C48.3515 50.3695 49.0963 48.6844 50.3198 47.486H26.3886C27.5731 48.6464 28.309 50.2629 28.309 52.0521C28.309 55.6835 25.2809 58.6078 21.6119 58.4374C18.3541 58.2861 15.7045 55.6538 15.5333 52.3969C15.4011 49.8818 16.7246 47.6649 18.7353 46.5084L10.7167 7.30556H2.73958C1.22653 7.30556 0 6.07902 0 4.56597V2.73958C0 1.22653 1.22653 0 2.73958 0H14.4432C15.7446 0 16.8664 0.915592 17.1272 2.19053L18.1735 7.30556H63.0093C64.7673 7.30556 66.0703 8.938 65.6807 10.6523L60.2845 34.3954C60.0011 35.6427 58.8923 36.5278 57.6131 36.5278ZM46.5729 19.1771H41.0938V14.6111C41.0938 13.6024 40.2761 12.7847 39.2674 12.7847H37.441C36.4322 12.7847 35.6146 13.6024 35.6146 14.6111V19.1771H30.1354C29.1267 19.1771 28.309 19.9947 28.309 21.0035V22.8299C28.309 23.8386 29.1267 24.6562 30.1354 24.6562H35.6146V29.2222C35.6146 30.231 36.4322 31.0486 37.441 31.0486H39.2674C40.2761 31.0486 41.0938 30.231 41.0938 29.2222V24.6562H46.5729C47.5817 24.6562 48.3993 23.8386 48.3993 22.8299V21.0035C48.3993 19.9947 47.5817 19.1771 46.5729 19.1771Z" fill="#FFFEFE"/>
</svg>
