<svg width="141" height="141" viewBox="0 0 141 141" fill="none" xmlns="http://www.w3.org/2000/svg">
<path fill-rule="evenodd" clip-rule="evenodd" d="M55.525 123.663C52.5758 128.792 45.4729 130.748 40.3264 127.758C34.9919 124.668 33.1589 117.794 36.2374 112.436L38.9164 107.795L58.2216 118.975L55.525 123.663ZM53.3571 18.3124L64.1084 14.4525L71.6578 28.2764L46.2425 93.0659L53.3571 18.3124ZM106.261 47.5109L55.6425 101.309L82.3385 33.2407L95.663 31.5194L106.261 47.5109ZM127.77 61.429L67.8449 104.822L110.521 50.7306L126.049 50.384L127.77 61.429ZM140.489 66.7282L136.089 38.4108L111.502 38.963L103.066 18.7236L81.3633 21.526L69.6074 0L42.3591 9.776L34.5513 91.8027L26.0443 106.59C23.9763 110.186 22.9893 114.122 22.9893 118.005C22.9893 125.942 27.0959 133.674 34.4279 137.922C37.9059 139.937 41.8598 141 45.8665 141C54.0328 141 61.6409 136.6 65.7181 129.514L74.2545 114.686L140.489 66.7282Z" fill="white"/>
</svg>
