<svg width="93" height="153" viewBox="0 0 93 153" fill="none" xmlns="http://www.w3.org/2000/svg">
<path d="M65.1174 60.5225V33.2079L48.3762 18.2289L32.5161 33.2079V60.5225H65.1174Z" stroke="black" stroke-width="6.60838"/>
<line x1="33.8378" y1="14.7043" x2="33.8378" y2="30.5644" stroke="black" stroke-width="2.64335"/>
<path d="M88.6802 117.426C88.6802 125.835 84.2513 133.699 76.5965 139.578C68.9378 145.459 58.199 149.203 46.1876 149.203C34.1762 149.203 23.4373 145.459 15.7786 139.578C8.12382 133.699 3.69501 125.835 3.69501 117.426C3.69501 109.017 8.12382 101.152 15.7786 95.2735C23.4373 89.3917 34.1762 85.6485 46.1876 85.6485C58.199 85.6485 68.9378 89.3917 76.5965 95.2735C84.2513 101.152 88.6802 109.017 88.6802 117.426Z" stroke="black" stroke-width="7.39001"/>
<path d="M49.0733 123.653C48.8182 124.393 48.5805 125.086 48.3607 125.728C48.1822 125.333 47.9951 124.917 47.7997 124.48C45.8519 120.13 43.0781 113.745 39.7828 105.621C33.1918 89.3708 24.518 66.1735 16.1962 38.4045C12.2542 25.2505 15.6163 16.2769 22.121 10.5825C28.8156 4.72177 39.2298 1.99835 49.8346 2.43852C60.4364 2.87857 70.6998 6.46024 77.0513 12.5609C80.1986 15.5839 82.3689 19.203 83.2207 23.3856C84.0725 27.5681 83.6417 32.4914 81.2955 38.1789C71.2928 62.4267 62.5792 85.7315 56.3672 102.971C53.2608 111.592 50.779 118.699 49.0733 123.653Z" stroke="black" stroke-width="4.7854"/>
</svg>
