<svg width="41" height="41" viewBox="0 0 41 41" fill="none" xmlns="http://www.w3.org/2000/svg">
<path d="M20.6859 40.1755C31.7801 40.1755 40.7737 31.1819 40.7737 20.0878C40.7737 8.99359 31.7801 0 20.6859 0C9.59174 0 0.598145 8.99359 0.598145 20.0878C0.598145 31.1819 9.59174 40.1755 20.6859 40.1755Z" fill="#C4C4C4"/>
<path d="M25.7997 21.6387L26.4014 17.7182H22.6395V15.174C22.6395 14.1014 23.165 13.0559 24.8499 13.0559H26.5601V9.71801C26.5601 9.71801 25.0081 9.45312 23.5242 9.45312C20.4262 9.45312 18.4012 11.3309 18.4012 14.7302V17.7182H14.9575V21.6387H18.4012V31.1164H22.6395V21.6387H25.7997Z" fill="#08043E"/>
</svg>
