<svg width="143" height="147" viewBox="0 0 143 147" fill="none" xmlns="http://www.w3.org/2000/svg">
<g clip-path="url(#clip0)">
<path d="M138.904 51.5074C129.142 21.4184 101.235 2.29688 71.232 2.29688C63.9395 2.29688 56.532 3.4166 49.2108 5.79961C11.8291 17.9443 -8.64179 58.1109 3.50294 95.4926C13.2647 125.582 41.1717 144.703 71.1746 144.703C78.4672 144.703 85.8746 143.583 93.1959 141.2C130.578 129.056 151.048 88.8891 138.904 51.5074ZM117.514 107.121L102.527 108.958L89.9803 91.473L96.9857 69.8824L117.399 63.5373L128.568 73.9881C128.51 82.8023 126.443 91.5305 122.338 99.5982C120.988 102.268 119.265 104.709 117.514 107.121ZM117.514 39.535L114.528 54.7805L94.2295 61.0969L75.7971 47.7463V26.5576L89.4061 19.0354C100.661 22.7678 110.48 29.9455 117.514 39.535ZM53.0867 19.0641L66.6096 26.5576V47.7463L48.1772 61.0969L27.9072 54.7805L25.0074 39.7072C31.9842 30.1178 41.6311 22.8826 53.0867 19.0641ZM39.9084 108.958L24.6629 107.092C20.5285 101.321 13.9537 89.9801 13.8102 73.9881L25.0074 63.5373L45.4209 69.9111L52.3977 91.2434L39.9084 108.958ZM53.7471 128.194L47.3158 114.384L59.8338 96.6697H82.4006L95.1195 114.384L88.6883 128.194C86.9082 128.711 72.1508 134.051 53.7471 128.194Z" fill="#FFF8F8"/>
</g>
<defs>
<clipPath id="clip0">
<rect width="142.406" height="147" fill="white"/>
</clipPath>
</defs>
</svg>
