<svg width="119" height="119" viewBox="0 0 119 119" fill="none" xmlns="http://www.w3.org/2000/svg">
<g clip-path="url(#clip0)">
<path fill-rule="evenodd" clip-rule="evenodd" d="M51.4726 105.489L18.5939 86.7113L25.491 74.8906L58.3697 93.6679L51.4726 105.489ZM90.2468 7.90852C80.5433 2.28577 72.1935 -0.347108 65.2965 0.0346833C54.9187 0.614808 45.7953 6.14831 47.3423 24.2809C45.3887 13.0404 38.333 3.56502 29.9882 5.09714C18.9112 7.13006 21.8119 21.4696 22.873 33.3894C23.82 44.0746 24.896 56.1878 19.4021 65.6285L4.9585 90.3755L55.0872 119L69.5011 94.2876C76.5866 82.2141 84.6488 76.2839 92.4582 70.5422C97.7537 66.64 114.042 55.6771 114.042 39.8352C114.042 26.7204 102.881 15.232 90.2468 7.90852Z" fill="white"/>
</g>
<defs>
<clipPath id="clip0">
<rect width="119" height="119" fill="white"/>
</clipPath>
</defs>
</svg>
