<svg width="109" height="109" viewBox="0 0 109 109" fill="none" xmlns="http://www.w3.org/2000/svg">
<path fill-rule="evenodd" clip-rule="evenodd" d="M63.5833 109H45.4167C45.4303 95.5748 40.8069 87.4407 36.3333 82.7855C46.9381 88.2083 62.2662 88.1992 72.6667 82.7855C68.2476 87.5179 63.6287 95.5748 63.5833 109ZM54.5 0C77.0585 0 95.375 18.3165 95.375 40.875C95.375 63.4335 77.0585 81.75 54.5 81.75C31.9415 81.75 13.625 63.4335 13.625 40.875C13.625 18.3165 31.9415 0 54.5 0ZM54.4955 63.0837C57.1387 63.0837 59.2869 65.232 59.2869 67.8752C59.2869 70.5185 57.1387 72.6667 54.4955 72.6667C51.8522 72.6667 49.704 70.5185 49.704 67.8752C49.704 65.232 51.8522 63.0837 54.4955 63.0837ZM65.6589 59.9091C68.3021 59.9091 70.4503 62.0573 70.4503 64.7006C70.4503 67.3438 68.3021 69.492 65.6589 69.492C63.0156 69.492 60.8674 67.3438 60.8674 64.7006C60.8674 62.0573 63.0156 59.9091 65.6589 59.9091ZM43.5909 59.9091C46.2342 59.9091 48.3824 62.0573 48.3824 64.7006C48.3824 67.3438 46.2342 69.492 43.5909 69.492C40.9477 69.492 38.7995 67.3438 38.7995 64.7006C38.7995 62.0573 40.9477 59.9091 43.5909 59.9091ZM34.2805 53.1738C36.9237 53.1738 39.072 55.3175 39.072 57.9607C39.072 60.604 36.9237 62.7522 34.2805 62.7522C31.6372 62.7522 29.489 60.604 29.489 57.9607C29.489 55.3175 31.6372 53.1738 34.2805 53.1738ZM75.0192 53.1738C77.6625 53.1738 79.8107 55.3175 79.8107 57.9607C79.8107 60.604 77.6625 62.7522 75.0192 62.7522C72.376 62.7522 70.2278 60.604 70.2278 57.9607C70.2278 55.3175 72.376 53.1738 75.0192 53.1738ZM54.4955 51.6796C57.1387 51.6796 59.2869 53.8278 59.2869 56.4711C59.2869 59.1143 57.1387 61.2625 54.4955 61.2625C51.8522 61.2625 49.704 59.1143 49.704 56.4711C49.704 53.8278 51.8522 51.6796 54.4955 51.6796ZM65.0412 47.4105C67.6845 47.4105 69.8327 49.5587 69.8327 52.2019C69.8327 54.8452 67.6845 56.9934 65.0412 56.9934C62.398 56.9934 60.2497 54.8452 60.2497 52.2019C60.2497 49.5587 62.398 47.4105 65.0412 47.4105ZM44.1359 47.4105C46.7792 47.4105 48.9274 49.5587 48.9274 52.2019C48.9274 54.8452 46.7792 56.9934 44.1359 56.9934C41.4927 56.9934 39.3445 54.8452 39.3445 52.2019C39.3445 49.5587 41.4927 47.4105 44.1359 47.4105ZM80.2649 43.1912C82.9127 43.1912 85.0563 45.3395 85.0563 47.9827C85.0563 50.626 82.9127 52.7742 80.2649 52.7742C77.6216 52.7742 75.478 50.626 75.478 47.9827C75.478 45.3395 77.6216 43.1912 80.2649 43.1912ZM28.8714 43.1912C31.5146 43.1912 33.6583 45.3395 33.6583 47.9827C33.6583 50.626 31.5146 52.7742 28.8714 52.7742C26.2281 52.7742 24.0799 50.626 24.0799 47.9827C24.0799 45.3395 26.2281 43.1912 28.8714 43.1912Z" fill="#FBF8F8"/>
</svg>
