<svg width="589" height="426" viewBox="0 0 589 426" fill="none" xmlns="http://www.w3.org/2000/svg">
<g clip-path="url(#clip0)">
<path d="M588.615 36.8854C586.631 53.7369 572.723 67.0806 569.423 83.7243C569.002 85.9075 568.741 88.1188 568.644 90.3401C568.17 99.8988 570.062 109.655 569.087 119.229C567.269 137.184 556.356 151.216 542.501 163.376C532.02 172.551 519.854 180.622 508.664 188.432C480.175 208.333 453.456 233.458 441.754 266.18C433.954 288.001 433.357 311.713 427.632 334.168C421.906 356.622 408.866 379.599 386.828 386.759C363.174 394.446 337.11 381.63 312.768 386.695C286.646 392.133 268.121 416.821 242.345 423.794C209.596 432.654 176.959 410.882 143.341 406.345C127.199 404.165 110.768 406.015 94.5406 404.618C76.4892 403.043 59.0109 397.488 43.3622 388.353C38.0312 385.224 32.6414 381.38 30.1625 375.697C28.0301 370.787 28.3553 365.189 29.011 359.874C31.4633 340.149 37.6686 318.708 27.9074 301.371C18.9032 285.378 -2.91687 273.937 0.319097 255.881C2.27027 245.016 12.9324 238.23 22.8589 233.362C43.2876 223.324 65.0491 215.466 83.308 201.909C96.3692 192.196 107.618 178.644 112.416 163.403C114.376 157.311 115.181 150.907 114.788 144.52C114.116 134.444 110.63 123.132 116.707 115.066C119.341 111.569 123.376 109.42 127.433 107.778C142.734 101.594 159.729 101.237 175.637 96.8441C181.09 95.3462 186.331 93.1588 191.23 90.3348C200.933 84.7158 208.743 76.4367 210.63 65.6306C211.734 59.2972 210.753 52.3828 213.914 46.7852C219.245 37.2959 229.785 33.3296 241.556 32.0394C256.126 30.4401 272.625 32.9404 283.671 34.1719L284.775 34.2892C298.961 35.7659 313.03 32.6259 326.853 27.8919C341.78 22.822 356.371 15.9236 370.568 11.019C371.901 10.557 373.23 10.1145 374.556 9.69155C384.919 6.38914 395.53 3.9201 406.286 2.308C421.456 0.0245861 436.833 -0.569017 452.133 0.538079C459.893 1.0972 467.615 2.1011 475.26 3.54481C477.506 3.97129 479.748 4.42799 481.988 4.9149C495.006 7.70305 507.955 11.1096 521.235 11.3122C522.189 11.3122 523.149 11.3122 524.103 11.3122C539.942 11.0403 556.138 7.01534 571.166 11.8773C578.027 14.1003 584.552 18.4718 587.303 25.1037C588.833 28.7981 589.078 32.9191 588.615 36.8854Z" fill="#6C63FF"/>
<path opacity="0.2" d="M568.666 90.3351H554.982C554.777 86.7969 553.54 83.3961 551.424 80.5536C549.307 77.711 546.403 75.5514 543.072 74.3419C545.559 72.9728 547.52 70.8155 548.646 68.2096C549.772 65.6038 550 62.6974 549.293 59.948C548.586 57.1986 546.985 54.7623 544.741 53.0228C542.498 51.2832 539.74 50.3391 536.901 50.3391C534.062 50.3391 531.304 51.2832 529.061 53.0228C526.817 54.7623 525.216 57.1986 524.509 59.948C523.803 62.6974 524.03 65.6038 525.156 68.2096C526.283 70.8155 528.244 72.9728 530.73 74.3419C527.399 75.5514 524.495 77.711 522.379 80.5536C520.262 83.3961 519.025 86.7969 518.821 90.3351H518.703C518.402 86.8943 517.125 83.6111 515.02 80.8721C512.916 78.1332 510.073 76.0525 506.826 74.875C508.716 73.8346 510.312 72.3332 511.466 70.5104C512.62 68.6876 513.294 66.6026 513.426 64.4493C513.558 62.296 513.144 60.1442 512.221 58.1941C511.298 56.244 509.897 54.559 508.149 53.2955C506.4 52.0321 504.36 51.2314 502.219 50.9678C500.078 50.7042 497.905 50.9863 495.902 51.7879C493.899 52.5895 492.131 53.8846 490.763 55.5526C489.395 57.2207 488.471 59.2077 488.076 61.3287C486.509 60.0492 484.737 59.0419 482.836 58.3486C485.323 56.9795 487.284 54.8222 488.41 52.2164C489.536 49.6105 489.764 46.7041 489.057 43.9547C488.35 41.2054 486.749 38.7691 484.506 37.0295C482.262 35.29 479.504 34.3459 476.665 34.3459C473.826 34.3459 471.068 35.29 468.825 37.0295C466.582 38.7691 464.98 41.2054 464.274 43.9547C463.567 46.7041 463.794 49.6105 464.921 52.2164C466.047 54.8222 468.008 56.9795 470.495 58.3486C466.99 59.6182 463.962 61.9373 461.823 64.99C459.684 68.0428 458.539 71.6807 458.542 75.4081V90.3351H452.678V78.6067C452.682 74.8793 451.536 71.2414 449.397 68.1887C447.258 65.1359 444.23 62.8168 440.726 61.5473C443.213 60.1782 445.173 58.0209 446.3 55.415C447.426 52.8092 447.654 49.9028 446.947 47.1534C446.24 44.404 444.639 41.9678 442.395 40.2282C440.152 38.4886 437.394 37.5445 434.555 37.5445C431.716 37.5445 428.958 38.4886 426.715 40.2282C424.471 41.9678 422.87 44.404 422.163 47.1534C421.457 49.9028 421.684 52.8092 422.81 55.415C423.937 58.0209 425.897 60.1782 428.384 61.5473C426.067 62.3914 423.945 63.6982 422.149 65.3882C420.353 67.0782 418.919 69.1161 417.935 71.3778C415.792 68.3304 412.764 66.0153 409.262 64.7459C411.749 63.3768 413.709 61.2195 414.836 58.6137C415.962 56.0078 416.19 53.1014 415.483 50.352C414.776 47.6026 413.175 45.1664 410.931 43.4268C408.688 41.6872 405.93 40.7431 403.091 40.7431C400.252 40.7431 397.494 41.6872 395.251 43.4268C393.007 45.1664 391.406 47.6026 390.699 50.352C389.993 53.1014 390.22 56.0078 391.346 58.6137C392.473 61.2195 394.433 63.3768 396.92 64.7459C393.056 66.1519 389.782 68.8261 387.634 72.3321V70.077C387.637 66.3496 386.491 62.7117 384.353 59.6589C382.214 56.6062 379.186 54.2871 375.681 53.0176C378.168 51.6484 380.129 49.4911 381.255 46.8853C382.381 44.2795 382.609 41.3731 381.902 38.6237C381.195 35.8743 379.594 33.438 377.351 31.6984C375.108 29.9589 372.349 29.0148 369.511 29.0148C366.672 29.0148 363.914 29.9589 361.67 31.6984C359.427 33.438 357.826 35.8743 357.119 38.6237C356.412 41.3731 356.64 44.2795 357.766 46.8853C358.892 49.4911 360.853 51.6484 363.34 53.0176C359.835 54.2871 356.807 56.6062 354.668 59.6589C352.53 62.7117 351.384 66.3496 351.388 70.077V90.3351H344.99C343.994 88.1275 342.566 86.1414 340.791 84.4935C339.015 82.8455 336.929 81.5691 334.653 80.7392C337.14 79.37 339.101 77.2128 340.227 74.6069C341.353 72.0011 341.581 69.0947 340.874 66.3453C340.167 63.5959 338.566 61.1596 336.323 59.4201C334.08 57.6805 331.321 56.7364 328.483 56.7364C325.644 56.7364 322.886 57.6805 320.642 59.4201C318.399 61.1596 316.798 63.5959 316.091 66.3453C315.384 69.0947 315.612 72.0011 316.738 74.6069C317.864 77.2128 319.825 79.37 322.312 80.7392C321.048 81.1984 319.839 81.7974 318.708 82.5251C318.258 79.2493 316.92 76.1592 314.839 73.5892C312.759 71.0191 310.015 69.0672 306.905 67.9446C309.392 66.5755 311.353 64.4182 312.479 61.8123C313.605 59.2065 313.833 56.3001 313.126 53.5507C312.419 50.8013 310.818 48.365 308.575 46.6255C306.331 44.8859 303.573 43.9418 300.734 43.9418C297.895 43.9418 295.137 44.8859 292.894 46.6255C290.651 48.365 289.049 50.8013 288.343 53.5507C287.636 56.3001 287.863 59.2065 288.99 61.8123C290.116 64.4182 292.077 66.5755 294.564 67.9446C291.893 68.92 289.489 70.5087 287.544 72.5827C285.6 74.6568 284.17 77.1584 283.368 79.8862C281.368 77.6288 278.835 75.9063 276.001 74.875C278.488 73.5059 280.448 71.3486 281.575 68.7427C282.701 66.1369 282.928 63.2305 282.222 60.4811C281.515 57.7317 279.914 55.2955 277.67 53.5559C275.427 51.8163 272.669 50.8722 269.83 50.8722C266.991 50.8722 264.233 51.8163 261.99 53.5559C259.746 55.2955 258.145 57.7317 257.438 60.4811C256.732 63.2305 256.959 66.1369 258.085 68.7427C259.212 71.3486 261.172 73.5059 263.659 74.875C261.703 75.5887 259.885 76.6348 258.286 77.967C257.311 75.6594 255.871 73.5779 254.055 71.8532C252.238 70.1285 250.085 68.7978 247.73 67.9446C250.217 66.5755 252.178 64.4182 253.304 61.8123C254.43 59.2065 254.658 56.3001 253.951 53.5507C253.244 50.8013 251.643 48.365 249.4 46.6255C247.156 44.8859 244.398 43.9418 241.559 43.9418C238.72 43.9418 235.962 44.8859 233.719 46.6255C231.476 48.365 229.874 50.8013 229.168 53.5507C228.461 56.3001 228.688 59.2065 229.815 61.8123C230.941 64.4182 232.902 66.5755 235.389 67.9446C231.884 69.2141 228.856 71.5332 226.717 74.586C224.578 77.6387 223.433 81.2766 223.436 85.004V90.3351H191.237C186.335 93.1481 181.095 95.3247 175.643 96.8124C159.735 101.205 142.74 101.562 127.44 107.746C123.383 109.388 119.347 111.537 116.713 115.034C110.636 123.1 114.122 134.412 114.794 144.488C115.185 150.876 114.379 157.28 112.417 163.371H542.523C556.384 151.237 567.291 137.179 569.109 119.224C570.084 109.655 568.192 99.8991 568.666 90.3351Z" fill="black"/>
<path opacity="0.05" d="M411.698 276.427C411.698 276.427 411.884 283.171 405.887 284.483C399.889 285.794 408.323 289.728 411.698 288.79C415.072 287.852 428.938 275.676 428.938 275.676C428.938 275.676 424.066 268.18 420.883 268.18C420.862 268.185 415.056 277.925 411.698 276.427Z" fill="black"/>
<path opacity="0.05" d="M384.51 272.493C384.51 272.493 384.883 278.677 375.703 282.238C375.703 282.238 366.144 283.176 372.707 287.857C379.269 292.538 399.127 286.546 399.127 286.546C399.127 286.546 398.754 280.548 396.505 275.675C396.505 275.681 385.64 274.929 384.51 272.493Z" fill="black"/>
<path d="M456.154 143.049C453.259 139.632 447.091 152.357 447.091 152.357L424.631 157.507C423.19 157.064 421.916 156.199 420.974 155.023C422.858 155.093 424.725 154.649 426.375 153.738C428.026 152.827 429.397 151.483 430.341 149.851L424.551 149.526C423.965 149.531 423.383 149.426 422.835 149.217C421.726 148.711 421.235 147.479 420.638 146.418C419.038 143.51 416.426 141.291 413.297 140.181C411.223 139.445 408.91 139.189 407.129 137.91C405.844 136.987 404.97 135.628 403.931 134.439C398.999 128.746 390.832 127.168 383.294 126.187C381.961 126.011 380.442 125.899 379.44 126.784C378.752 127.386 378.48 128.33 377.883 129.023C376.865 130.212 375.143 130.452 373.591 130.745C371.638 131.046 369.771 131.756 368.111 132.829C367.291 133.367 366.595 134.073 366.069 134.9C365.542 135.727 365.197 136.657 365.056 137.627C364.758 140.586 366.917 143.417 366.517 146.365C366.394 147.271 366.032 148.135 365.984 149.03C365.988 149.892 366.124 150.748 366.389 151.568C367.039 154.068 367.541 156.67 367.098 159.213C366.656 161.756 365.099 164.235 362.663 165.178C365.792 165.869 369.066 165.417 371.891 163.904C374.631 162.337 376.646 159.442 376.742 156.323C376.742 156.249 376.742 156.174 376.742 156.099L377.067 156.227C377.115 156.403 377.163 156.59 377.206 156.787L377.691 156.926C377.875 158.039 377.875 159.176 377.691 160.29L374.316 162.987C374.316 162.987 374.316 163.184 374.359 163.52L374.316 163.552C374.316 163.552 374.316 163.712 374.354 163.995L367.754 168.11C363.485 171.39 360.323 175.898 358.691 181.028L352.704 190.346C352.704 190.346 348.844 193.955 346.723 194.526L328.773 210.103C328.773 210.103 322.557 213.488 322.584 216.868C322.584 216.936 322.584 217.005 322.584 217.076C322.584 217.144 322.584 217.211 322.584 217.279C322.584 217.343 322.598 217.407 322.626 217.471C322.626 217.535 322.664 217.593 322.685 217.657V217.689C322.685 217.748 322.727 217.807 322.754 217.865V217.903L322.839 218.073V218.116L322.935 218.276L322.967 218.324L323.074 218.478L323.117 218.532L323.239 218.681L323.293 218.74L323.426 218.878L323.49 218.942L323.634 219.075L323.708 219.145L323.868 219.278L323.954 219.347L324.13 219.475L324.22 219.545L324.423 219.683L324.508 219.742L324.828 219.934C331.758 223.921 333.512 213.664 333.512 213.664L354.357 199.985C354.357 199.985 371.534 184.407 371.534 180.99L375.265 182.59L375.201 183.261C375.201 183.261 375.201 183.411 375.201 183.672V183.832C375.201 183.832 375.009 191.828 385.042 193.902C385.042 193.902 394.217 203.109 394.494 206.036C394.494 206.094 394.494 206.148 394.494 206.206C394.494 206.265 394.494 206.233 394.494 206.249C394.335 208.488 396.494 212.875 397.16 214.213L393.508 217.268L393.546 217.801L393.508 217.833L393.647 219.731C389.515 224.183 383.518 230.788 382.894 232.27C381.929 234.552 381.929 239.488 384.243 244.617L386.754 267.22V273.804L385.597 273.271V274.764C385.038 274.548 384.565 274.157 384.248 273.65C384.248 273.65 384.248 273.719 384.248 273.842C384.216 274.945 383.624 280.292 375.185 283.518C375.185 283.518 369.588 284.051 369.732 286.364C369.673 287.143 370.291 288.14 372.093 289.408C378.848 294.158 399.282 288.081 399.282 288.081C399.282 288.081 399.282 288.017 399.282 287.894C399.282 287.894 398.898 281.817 396.579 276.875C396.579 276.875 396.046 276.838 395.23 276.758V275.356L394.388 275.212C394.363 272.549 394.626 269.891 395.172 267.284C396.453 261.243 396.825 255.044 396.275 248.892C397.23 250.091 398.302 251.193 399.474 252.181L411.655 271.501L413.095 274.46C412.562 274.844 412.028 275.18 411.591 275.452L414.038 277.717C413.491 277.938 412.88 277.938 412.332 277.717C412.332 277.717 412.524 284.557 406.351 285.885C403.888 286.418 403.792 287.367 404.778 288.262C406.09 289.686 410.338 291.04 412.524 290.443C416 289.494 430.282 277.147 430.282 277.147C429.016 275.268 427.58 273.51 425.991 271.896C424.594 270.499 423.064 269.364 421.79 269.364C421.79 269.364 421.496 269.849 421.001 270.59L419.476 269.177L419.321 269.321C419.193 268.9 419.076 268.473 418.975 268.052C418.975 268.052 416.016 254.495 406.953 244.227C406.953 244.227 405.167 242.751 407.929 237.873C407.929 237.873 412.396 232.574 416.293 226.827C421.96 227.93 427.792 227.477 432.217 223.394L432.159 223.042L432.409 222.823L430.479 210.855C430.479 210.855 431.348 199.553 417.258 190.432C417.258 190.432 409.635 181.028 406.932 169.059H406.777L406.932 166.985C408.67 168.313 427.19 165.845 427.19 165.845L451.713 155.588C453.104 154.825 456.98 149.542 456.964 145.714C457.038 144.756 456.749 143.804 456.154 143.049Z" fill="url(#paint0_linear)"/>
<path d="M420.062 155.412C420.695 156.216 421.49 156.878 422.396 157.355C423.302 157.832 424.298 158.112 425.319 158.178C423.752 159.633 421.923 160.776 419.929 161.548C414.161 163.813 407.177 163.147 402.209 159.373C401.041 158.482 399.922 157.421 398.477 157.075C397.24 156.771 395.939 157.075 394.66 157.006C393.061 156.911 391.532 156.313 390.295 155.295C389.057 154.278 388.174 152.895 387.772 151.344C387.404 149.782 387.553 148.145 387.287 146.546C387.243 146.275 387.184 146.006 387.111 145.741C386.365 143.076 382.878 140.207 379.941 140.986C377.169 141.716 375.745 146.077 375.804 148.572C375.862 151.317 377.19 153.94 377.105 156.686C377.009 159.762 375.052 162.619 372.392 164.149C369.661 165.633 366.485 166.076 363.452 165.397C365.819 164.464 367.327 162.017 367.759 159.533C368.191 157.048 367.701 154.457 367.071 151.994C366.814 151.184 366.681 150.339 366.677 149.489C366.725 148.588 367.077 147.735 367.21 146.823C367.599 143.918 365.504 141.124 365.792 138.208C365.926 137.257 366.259 136.346 366.77 135.533C367.281 134.72 367.958 134.024 368.756 133.49C370.366 132.432 372.184 131.73 374.087 131.432C375.591 131.145 377.286 130.899 378.256 129.732C378.837 129.049 379.098 128.133 379.765 127.519C380.735 126.65 382.212 126.762 383.497 126.933C390.816 127.903 398.738 129.455 403.531 135.074C404.533 136.246 405.381 137.59 406.628 138.496C408.355 139.76 410.6 140.01 412.615 140.735C415.664 141.847 418.197 144.043 419.732 146.903C420.265 147.969 420.798 149.164 421.864 149.665C422.396 149.872 422.962 149.977 423.533 149.974L429.152 150.294C428.251 151.898 426.927 153.224 425.324 154.126C423.721 155.029 421.901 155.473 420.062 155.412Z" fill="#F55F44"/>
<path d="M391.728 155.481C391.728 155.481 394.446 155.763 399.879 154.452C405.311 153.141 410.749 157.262 410.749 157.262L422.179 158.2L445.412 152.767C445.412 152.767 451.409 140.213 454.218 143.587C457.028 146.962 451.596 154.831 449.911 155.769L426.092 165.877C426.092 165.877 408.105 168.313 406.42 167.001L406.047 172.061L397.053 167.753L393.135 158.573L391.728 155.481Z" fill="#FDB797"/>
<path opacity="0.05" d="M449.906 155.572L426.108 165.701C426.108 165.701 408.121 168.137 406.436 166.826L406.063 171.885L397.069 167.577L393.135 158.397L391.903 155.694H391.728L393.135 158.786L397.069 167.966L406.063 172.274L406.436 167.215C408.121 168.526 426.108 166.09 426.108 166.09L449.906 155.961C451.281 155.198 455.135 149.835 455.002 146.05C454.88 149.793 451.238 154.841 449.906 155.572Z" fill="black"/>
<path d="M376.081 163.44L368.399 168.313C364.235 171.565 361.163 176.01 359.592 181.054L353.781 190.234C353.781 190.234 350.049 193.795 347.97 194.355L330.543 209.719C330.543 209.719 320.051 215.53 326.811 219.465C333.571 223.399 335.245 213.281 335.245 213.281L355.503 199.788C355.503 199.788 372.178 184.423 372.178 181.049L378.176 183.672L376.081 163.44Z" fill="#FDB797"/>
<path opacity="0.05" d="M372.147 180.681C372.147 184.056 355.471 199.42 355.471 199.42L335.213 212.913C335.213 212.913 333.528 223.042 326.779 219.097C325.233 218.196 324.593 217.194 324.524 216.191C324.449 217.322 325.057 218.457 326.779 219.475C333.523 223.41 335.213 213.291 335.213 213.291L355.471 199.798C355.471 199.798 372.147 184.434 372.147 181.06L378.144 183.682L378.107 183.288L372.147 180.681Z" fill="black"/>
<path d="M398.477 219.79C398.477 219.79 392.613 238.379 392.757 240.81C392.9 243.241 394.985 247.634 399.202 251.227L411.031 270.286L414.673 277.888L421.832 275.915C421.832 275.915 419.167 271.176 418.132 266.885C418.132 266.885 415.259 253.509 406.463 243.385C406.463 243.385 404.73 241.93 407.406 237.116C407.406 237.116 420.585 221.251 421.027 214.805L398.477 219.79Z" fill="#FDB797"/>
<path opacity="0.05" d="M398.477 219.79C398.477 219.79 392.613 238.379 392.757 240.81C392.9 243.241 394.985 247.634 399.202 251.227L411.031 270.286L414.673 277.888L421.832 275.915C421.832 275.915 419.167 271.176 418.132 266.885C418.132 266.885 415.259 253.509 406.463 243.385C406.463 243.385 404.73 241.93 407.406 237.116C407.406 237.116 420.585 221.251 421.027 214.805L398.477 219.79Z" fill="black"/>
<path opacity="0.1" d="M397.629 215.157C397.629 215.157 384.301 229.396 383.39 231.646C382.478 233.896 382.452 238.768 384.701 243.828L387.138 266.128V274.561L394.447 275.857C394.447 275.857 394.073 270.424 395.006 266.112C395.006 266.112 398.205 252.784 394.633 239.877C394.633 239.877 393.695 237.814 398.194 234.632C398.194 234.632 416.933 226.011 420.116 220.392L397.629 215.157Z" fill="black"/>
<path d="M397.443 215.157C397.443 215.157 384.115 229.396 383.203 231.646C382.292 233.896 382.265 238.768 384.515 243.828L386.951 266.128V274.561L394.26 275.857C394.26 275.857 393.887 270.424 394.82 266.112C394.82 266.112 398.018 252.784 394.447 239.877C394.447 239.877 393.508 237.814 398.008 234.632C398.008 234.632 416.747 226.011 419.929 220.392L397.443 215.157Z" fill="#FDB797"/>
<path opacity="0.05" d="M397.539 215.157L397.437 215.264L419.46 220.414C416.261 226.033 397.539 234.653 397.539 234.653C393.039 237.852 393.977 239.899 393.977 239.899C397.539 252.827 394.351 266.133 394.351 266.133C393.487 270.105 393.738 275.02 393.78 275.777L394.351 275.878C394.351 275.878 393.977 270.446 394.91 266.133C394.91 266.133 398.109 252.805 394.537 239.899C394.537 239.899 393.599 237.836 398.098 234.653C398.098 234.653 416.837 226.033 420.02 220.414L397.539 215.157Z" fill="black"/>
<path d="M377.046 154.26C377.046 154.26 379.669 158.381 377.046 163.819L379.669 177.312L390.539 175.814L395.785 169.816L391.637 155.374C391.637 155.374 388.262 156.686 387.905 147.506L377.046 154.26Z" fill="#FDB797"/>
<path opacity="0.1" d="M374.77 163.819C374.77 163.819 375.521 173.751 376.454 176L375.702 183.869C375.702 183.869 375.516 191.738 385.261 193.801C385.261 193.801 394.628 203.359 394.441 205.982C394.255 208.605 397.251 214.224 397.251 214.224L393.519 217.423L393.706 220.046L396.328 217.423C396.328 217.423 419.002 234.098 430.98 222.855L429.109 211.052C429.109 211.052 430.709 201.03 417.024 192.036C417.024 192.036 408.872 181.635 406.25 169.832C406.25 169.832 398.754 169.081 396.883 166.271L393.151 155.028L390.059 155.684L392.965 168.142C392.965 168.142 389.59 179.386 380.223 174.54L378.091 161.212L374.77 163.819Z" fill="black"/>
<path d="M374.77 163.254C374.77 163.254 375.521 173.185 376.454 175.435L375.702 183.304C375.702 183.304 375.516 191.173 385.261 193.236C385.261 193.236 394.628 202.794 394.441 205.417C394.255 208.04 397.251 213.659 397.251 213.659L393.519 216.858L393.706 219.481L396.328 216.858C396.328 216.858 419.002 233.533 430.98 222.29L429.109 210.487C429.109 210.487 429.952 199.34 416.272 190.346C416.272 190.346 408.872 181.07 406.25 169.267C406.25 169.267 398.754 168.515 396.883 165.706L393.151 154.463L390.059 155.118L392.965 167.577C392.965 167.577 389.59 178.82 380.223 173.974L378.091 160.647L374.77 163.254Z" fill="#252A62"/>
<path d="M305.29 210.38H275.26V210.567H305.29V210.38Z" fill="#B4ABAB"/>
<path d="M304.543 209.069H276.011V209.256H304.543V209.069Z" fill="#B4ABAB"/>
<path d="M302.667 207.758H276.571V207.944H302.667V207.758Z" fill="#B4ABAB"/>
<path d="M300.604 206.446H277.509V206.633H300.604V206.446Z" fill="#B4ABAB"/>
<path d="M298.546 205.135H278.821V205.321H298.546V205.135Z" fill="#B4ABAB"/>
<path d="M296.296 203.823H280.505V204.01H296.296V203.823Z" fill="#B4ABAB"/>
<path d="M292.922 202.512H283.128V202.698H292.922V202.512Z" fill="#B4ABAB"/>
<path d="M306.409 211.878H274.694V212.065H306.409V211.878Z" fill="#B4ABAB"/>
<path d="M306.974 213.376H274.694V213.563H306.974V213.376Z" fill="#B4ABAB"/>
<path d="M307.347 214.875H274.135V215.061H307.347V214.875Z" fill="#B4ABAB"/>
<path d="M307.785 216.373H274.135V216.559H307.785V216.373Z" fill="#B4ABAB"/>
<path d="M307.598 217.876H274.135V218.063H307.598V217.876Z" fill="#B4ABAB"/>
<path d="M307.033 219.374H274.508V219.561H307.033V219.374Z" fill="#B4ABAB"/>
<path d="M306.095 220.872H275.26V221.059H306.095V220.872Z" fill="#B4ABAB"/>
<path d="M304.783 222.37H275.26V222.557H304.783V222.37Z" fill="#B4ABAB"/>
<path d="M303.099 223.868H276.571V224.055H303.099V223.868Z" fill="#B4ABAB"/>
<path d="M301.035 225.366H277.882V225.553H301.035V225.366Z" fill="#B4ABAB"/>
<path d="M298.791 226.87H279.38V227.056H298.791V226.87Z" fill="#B4ABAB"/>
<path d="M296.168 228.367H282.382V228.554H296.168V228.367Z" fill="#B4ABAB"/>
<path d="M278.24 205.913H278.053V225.793H278.24V205.913Z" fill="#B4ABAB"/>
<path d="M277.115 207.411H276.928V224.481H277.115V207.411Z" fill="#B4ABAB"/>
<path d="M275.99 209.096H275.803V222.983H275.99V209.096Z" fill="#B4ABAB"/>
<path d="M274.865 211.719H274.679V220.547H274.865V211.719Z" fill="#B4ABAB"/>
<path d="M279.738 204.602H279.551V227.104H279.738V204.602Z" fill="#B4ABAB"/>
<path d="M281.236 203.663H281.049V227.856H281.236V203.663Z" fill="#B4ABAB"/>
<path d="M282.734 202.912H282.547V228.415H282.734V202.912Z" fill="#B4ABAB"/>
<path d="M284.237 202.352H284.051V228.981H284.237V202.352Z" fill="#B4ABAB"/>
<path d="M285.735 201.792H285.549V229.546H285.735V201.792Z" fill="#B4ABAB"/>
<path d="M287.233 201.792H287.047V229.546H287.233V201.792Z" fill="#B4ABAB"/>
<path d="M288.731 201.792H288.545V229.546H288.731V201.792Z" fill="#B4ABAB"/>
<path d="M290.23 201.792H290.043V229.546H290.23V201.792Z" fill="#B4ABAB"/>
<path d="M291.732 202.352H291.546V229.54H291.732V202.352Z" fill="#B4ABAB"/>
<path d="M293.231 202.725H293.044V229.354H293.231V202.725Z" fill="#B4ABAB"/>
<path d="M294.729 203.104H294.542V228.981H294.729V203.104Z" fill="#B4ABAB"/>
<path d="M296.227 203.85H296.04V228.229H296.227V203.85Z" fill="#B4ABAB"/>
<path d="M297.725 204.602H297.538V227.669H297.725V204.602Z" fill="#B4ABAB"/>
<path d="M299.223 205.913H299.036V226.917H299.223V205.913Z" fill="#B4ABAB"/>
<path d="M300.726 206.473H300.54V225.793H300.726V206.473Z" fill="#B4ABAB"/>
<path d="M302.224 207.598H302.038V224.854H302.224V207.598Z" fill="#B4ABAB"/>
<path d="M303.722 208.909H303.536V223.729H303.722V208.909Z" fill="#B4ABAB"/>
<path d="M305.22 210.034H305.034V222.045H305.22V210.034Z" fill="#B4ABAB"/>
<path d="M306.718 212.47H306.532V220.36H306.718V212.47Z" fill="#B4ABAB"/>
<path d="M288.891 230.105C287.222 230.115 285.559 229.887 283.954 229.428C279.977 228.272 276.976 225.905 275.275 222.578C273.754 219.485 273.376 215.954 274.209 212.609C275.713 206.212 281.507 200.054 290.682 201.701L290.991 201.76C294.199 202.378 297.236 203.676 299.9 205.566C315.125 216.282 318.558 214.848 318.558 214.832L319.124 214.507V216.884L318.713 216.842C313.712 216.309 305.918 222.034 301.686 225.478C298.531 228.096 294.65 229.687 290.565 230.036C289.996 230.082 289.438 230.105 288.891 230.105ZM287.745 202.181C280.665 202.181 276.187 207.384 274.924 212.779C273.527 218.745 275.819 226.278 284.162 228.703C286.22 229.281 288.367 229.478 290.496 229.284C294.428 228.946 298.164 227.413 301.2 224.892C305.391 221.464 313.105 215.829 318.367 216.063V215.616C316.89 215.786 312.204 215.136 299.452 206.158C296.875 204.328 293.935 203.072 290.831 202.474L290.528 202.416C289.609 202.257 288.677 202.181 287.745 202.187V202.181Z" fill="#535461"/>
<path d="M317.621 213.846H333.726C334.222 213.846 334.698 214.043 335.049 214.394C335.4 214.745 335.597 215.221 335.597 215.717C335.597 216.213 335.4 216.689 335.049 217.04C334.698 217.391 334.222 217.588 333.726 217.588H317.621V213.856V213.846Z" fill="#535461"/>
<path d="M319.87 213.846H317.621V217.593H319.87V213.846Z" fill="#F0E4E4"/>
<path d="M302.944 224.455L302.507 223.847C305.705 221.549 307.305 219.049 307.305 216.383C307.305 211.836 302.549 208.301 302.507 208.269L302.949 207.662C303.157 207.816 308.072 211.447 308.062 216.383C308.062 219.299 306.345 222.013 302.944 224.455Z" fill="#535461"/>
<path opacity="0.1" d="M388.668 154.042C388.108 152.879 387.639 150.976 387.516 147.89L376.646 154.633C377.089 155.413 377.404 156.259 377.579 157.139C379.528 157.76 381.616 157.797 383.586 157.247C385.556 156.697 387.322 155.583 388.668 154.042Z" fill="black"/>
<path d="M381.14 157.256C386.934 157.256 391.632 152.559 391.632 146.765C391.632 140.97 386.934 136.273 381.14 136.273C375.346 136.273 370.648 140.97 370.648 146.765C370.648 152.559 375.346 157.256 381.14 157.256Z" fill="#FDB797"/>
<path opacity="0.1" d="M380.644 144.179C381.71 144.606 382.419 145.608 383.432 146.125C384.888 146.866 386.631 146.482 388.262 146.786C390.091 147.132 391.765 148.385 393.593 148.215C395.79 148.023 397.394 145.72 397.325 143.518C397.256 141.316 395.806 139.344 394.015 138.064C392.223 136.785 390.091 136.081 387.996 135.399C385.33 134.519 382.451 133.634 379.695 134.269C377.126 134.86 370.206 138.262 370.563 141.482C371.144 146.658 377.968 143.113 380.644 144.179Z" fill="black"/>
<path d="M380.644 143.811C381.71 144.238 382.419 145.24 383.432 145.757C384.888 146.498 386.631 146.114 388.262 146.418C390.091 146.765 391.765 148.017 393.593 147.847C395.79 147.655 397.394 145.352 397.325 143.15C397.256 140.948 395.806 138.976 394.015 137.696C392.223 136.417 390.091 135.713 387.996 135.031C385.33 134.151 382.451 133.266 379.695 133.901C377.126 134.493 370.206 137.894 370.563 141.114C371.144 146.285 377.968 142.734 380.644 143.811Z" fill="#F55F44"/>
<path opacity="0.1" d="M396.238 206.068C396.238 206.068 396.798 210.754 398.301 212.252L396.238 206.068Z" fill="black"/>
<path opacity="0.1" d="M415.339 190.89C415.524 192.331 415.192 193.792 414.401 195.011L415.339 190.89Z" fill="black"/>
<path opacity="0.1" d="M406.367 178.9C406.367 178.9 404.683 182.275 400.183 184.519L406.367 178.9Z" fill="black"/>
<g opacity="0.05">
<path opacity="0.05" d="M379.082 174.497C382.361 176.203 384.904 175.931 386.828 174.865C385.101 175.398 382.979 175.281 380.394 173.937L378.261 160.609L377.019 161.617L379.082 174.497Z" fill="black"/>
<path opacity="0.05" d="M392.01 155.012L395.742 166.255C397.613 169.065 405.109 169.816 405.109 169.816C407.732 181.619 415.131 190.895 415.131 190.895C428.811 199.889 427.968 211.036 427.968 211.036L429.84 222.839C428.831 223.786 427.686 224.577 426.444 225.185C428.193 224.542 429.794 223.552 431.151 222.274L429.29 210.471C429.29 210.471 430.133 199.324 416.453 190.33C416.453 190.33 409.054 181.054 406.431 169.251C406.431 169.251 398.935 168.5 397.064 165.69L393.332 154.447L390.24 155.102L390.304 155.374L392.01 155.012Z" fill="black"/>
<path opacity="0.05" d="M395.171 217.407L393.812 218.766L393.86 219.465L395.609 217.716L395.171 217.407Z" fill="black"/>
</g>
<path opacity="0.1" d="M402.971 211.505C402.971 211.505 410.84 206.073 417.211 206.073L402.971 211.505Z" fill="black"/>
<path opacity="0.1" d="M386.855 191.828C386.855 191.828 391.355 189.019 392.666 186.769L386.855 191.828Z" fill="black"/>
<path d="M329.892 211.884C329.892 211.884 327.643 214.693 328.768 215.616C329.892 216.538 332.702 212.417 332.702 212.417L329.892 211.884Z" fill="#FDB797"/>
<path d="M248.754 215.344C247.494 215.344 246.286 215.844 245.395 216.735C244.504 217.626 244.004 218.834 244.004 220.094C243.995 220.25 243.995 220.406 244.004 220.563C244.004 220.648 244.014 220.733 244.036 220.819V220.888C244.22 221.984 244.787 222.979 245.635 223.697L245.789 223.825C246.385 224.293 247.084 224.611 247.828 224.754C248.572 224.896 249.34 224.858 250.066 224.644C250.793 224.43 251.457 224.044 252.005 223.521C252.552 222.997 252.966 222.35 253.213 221.634C253.459 220.918 253.531 220.153 253.422 219.404C253.313 218.654 253.026 217.942 252.585 217.325C252.145 216.709 251.563 216.207 250.889 215.862C250.215 215.516 249.468 215.337 248.711 215.338L248.754 215.344Z" fill="url(#paint1_linear)"/>
<path d="M246.029 223.58C246.819 224.196 247.795 224.526 248.797 224.517C249.799 224.507 250.767 224.158 251.545 223.526C252.323 222.895 252.864 222.019 253.08 221.04C253.295 220.062 253.173 219.039 252.733 218.14C252.293 217.24 251.56 216.516 250.655 216.085C249.751 215.655 248.727 215.545 247.751 215.771C246.775 215.998 245.905 216.549 245.282 217.334C244.66 218.119 244.322 219.092 244.323 220.094C244.315 220.239 244.315 220.385 244.323 220.531C244.323 220.609 244.332 220.689 244.35 220.771V220.835C244.524 221.858 245.055 222.788 245.848 223.458L246.029 223.58Z" fill="#3AD29F"/>
<path d="M246.03 223.58H246.184C246.243 222.962 247.965 221.981 249.383 221.187C250.87 220.339 251.792 219.795 251.942 219.337C252.139 218.75 251.553 218.062 250.923 217.679C250.177 217.215 249.111 216.996 248.354 217.753C247.126 218.81 245.791 219.735 244.372 220.515L244.398 220.755V220.819C244.516 220.755 247.282 219.219 248.551 217.94C249.18 217.316 250.092 217.513 250.732 217.94C251.371 218.366 251.728 218.883 251.617 219.23C251.505 219.577 250.273 220.296 249.196 220.904C247.666 221.784 246.083 222.679 245.886 223.442L246.03 223.58Z" fill="#F0E4E4"/>
<path d="M418.629 267.999C418.629 267.999 413.831 272.498 410.979 274.183L413.569 276.619L421.827 275.489V270.989L418.629 267.999Z" fill="#F0E4E4"/>
<path d="M387.511 272.871L385.826 272.12V276.992L395.193 278.49V274.183L387.511 272.871Z" fill="#F0E4E4"/>
<path opacity="0.05" d="M384.51 272.125C384.51 272.125 384.883 278.309 375.703 281.87C375.703 281.87 366.144 282.808 372.707 287.489C379.269 292.17 399.127 286.178 399.127 286.178C399.127 286.178 398.754 280.18 396.505 275.308C396.505 275.324 385.64 274.583 384.51 272.125Z" fill="black"/>
<path d="M384.51 272.658C384.51 272.658 384.883 278.842 375.703 282.403C375.703 282.403 366.144 283.342 372.707 288.022C379.269 292.703 399.127 286.711 399.127 286.711C399.127 286.711 398.754 280.713 396.505 275.841C396.505 275.857 385.64 275.116 384.51 272.658Z" fill="#F0E4E4"/>
<path opacity="0.05" d="M411.869 276.081C411.869 276.081 412.055 282.824 406.058 284.136C400.06 285.447 408.494 289.382 411.869 288.443C415.243 287.505 429.109 275.324 429.109 275.324C429.109 275.324 424.237 267.86 421.054 267.86C421.054 267.86 415.243 277.584 411.869 276.081Z" fill="black"/>
<path d="M411.869 276.614C411.869 276.614 412.055 283.358 406.058 284.669C400.06 285.98 408.494 289.915 411.869 288.976C415.243 288.038 429.109 275.857 429.109 275.857C429.109 275.857 424.237 268.393 421.054 268.393C421.054 268.393 415.243 278.117 411.869 276.614Z" fill="#F0E4E4"/>
<path d="M136.534 241.743L163.179 295.859L189.829 349.969H136.534H83.2393L109.884 295.859L136.534 241.743Z" stroke="#F0E4E4" stroke-width="0.533108" stroke-miterlimit="10"/>
<path d="M52.3032 241.743L78.948 295.859L105.598 349.969H52.3032V241.743Z" stroke="#F0E4E4" stroke-width="0.533108" stroke-miterlimit="10"/>
<path d="M99.7497 241.743L126.394 295.859L153.045 349.969H99.7497L57.1011 346.238L60.0438 322.376L73.0996 295.859L99.7497 241.743Z" stroke="#F0E4E4" stroke-width="0.533108" stroke-miterlimit="10"/>
<path d="M162.123 241.743L188.768 295.859L215.418 349.969H162.123H108.829L135.473 295.859L162.123 241.743Z" stroke="#F0E4E4" stroke-width="0.533108" stroke-miterlimit="10"/>
<path d="M211.703 241.743L238.347 295.859L264.997 349.969H211.703H158.408L185.052 295.859L211.703 241.743Z" stroke="#F0E4E4" stroke-width="0.533108" stroke-miterlimit="10"/>
<path d="M265.013 241.743L291.658 295.859L318.308 349.969H265.013H211.718L238.363 295.859L265.013 241.743Z" stroke="#F0E4E4" stroke-width="0.533108" stroke-miterlimit="10"/>
<path d="M318.324 241.743L344.969 295.859L371.619 349.969H318.324H265.029L291.674 295.859L318.324 241.743Z" stroke="#F0E4E4" stroke-width="0.533108" stroke-miterlimit="10"/>
<path d="M372.701 241.743L399.346 295.859L425.996 349.969H372.701H319.406L346.051 295.859L372.701 241.743Z" stroke="#F0E4E4" stroke-width="0.533108" stroke-miterlimit="10"/>
<path d="M426.545 241.743L453.19 295.859L479.84 349.969H426.545H373.25L399.895 295.859L426.545 241.743Z" stroke="#F0E4E4" stroke-width="0.533108" stroke-miterlimit="10"/>
<path d="M476.657 241.743L503.302 295.859L529.952 349.969H476.657H423.362L450.007 295.859L476.657 241.743Z" stroke="#F0E4E4" stroke-width="0.533108" stroke-miterlimit="10"/>
<path d="M551.649 349.969H521.987L548.632 295.859L549.693 293.711L551.649 349.969Z" stroke="#F0E4E4" stroke-width="0.533108" stroke-miterlimit="10"/>
<path d="M508.644 241.743L535.289 295.859L561.939 349.969H508.644H455.349L481.994 295.859L508.644 241.743Z" stroke="#F0E4E4" stroke-width="0.533108" stroke-miterlimit="10"/>
<path d="M524.104 241.743L550.749 295.859L556.623 307.779V349.969H524.104H470.809L497.454 295.859L524.104 241.743Z" stroke="#F0E4E4" stroke-width="0.533108" stroke-miterlimit="10"/>
<path d="M541.697 241.743V349.969H488.402L515.047 295.859L541.697 241.743Z" stroke="#F0E4E4" stroke-width="0.533108" stroke-miterlimit="10"/>
<path d="M241.557 241.743L268.201 295.859L294.851 349.969H241.557H188.262L214.906 295.859L241.557 241.743Z" stroke="#F0E4E4" stroke-width="0.533108" stroke-miterlimit="10"/>
<path d="M346.579 241.743L373.224 295.859L399.874 349.969H346.579H293.284L319.929 295.859L346.579 241.743Z" stroke="#F0E4E4" stroke-width="0.533108" stroke-miterlimit="10"/>
<path d="M451.601 241.743L478.246 295.859L504.896 349.969H451.601H398.306L424.951 295.859L451.601 241.743Z" stroke="#F0E4E4" stroke-width="0.533108" stroke-miterlimit="10"/>
<path d="M556.623 241.743L558.985 246.546L555.557 296.126L556.623 349.969H503.329L529.973 295.859L556.623 241.743Z" stroke="#F0E4E4" stroke-width="0.533108" stroke-miterlimit="10"/>
<path d="M455.333 350.503L428.683 296.392L402.038 242.276H455.333H508.628L481.978 296.392L455.333 350.503Z" stroke="#F0E4E4" stroke-width="0.533108" stroke-miterlimit="10"/>
<path d="M346.046 350.503L319.396 296.392L292.751 242.276H346.046H399.341L372.691 296.392L346.046 350.503Z" stroke="#F0E4E4" stroke-width="0.533108" stroke-miterlimit="10"/>
<path d="M236.759 350.503L210.109 296.392L183.464 242.276H236.759H290.053L263.403 296.392L236.759 350.503Z" stroke="#F0E4E4" stroke-width="0.533108" stroke-miterlimit="10"/>
<path d="M127.472 350.503L100.821 296.392L74.1768 242.276H127.472H180.766L154.116 296.392L127.472 350.503Z" stroke="#F0E4E4" stroke-width="0.533108" stroke-miterlimit="10"/>
<path d="M551.826 236.951H66.6973V246.546H551.826V236.951Z" fill="#F0E4E4"/>
<path d="M551.826 346.238H66.6973V355.834H551.826V346.238Z" fill="#F0E4E4"/>
<path d="M70.4287 228.954H51.2368V363.83H70.4287V228.954Z" fill="#535461"/>
<path d="M561.421 228.954H542.229V363.83H561.421V228.954Z" fill="#535461"/>
</g>
<defs>
<linearGradient id="paint0_linear" x1="389.777" y1="291.322" x2="389.777" y2="126.059" gradientUnits="userSpaceOnUse">
<stop stop-color="#808080" stop-opacity="0.25"/>
<stop offset="0.54" stop-color="#808080" stop-opacity="0.12"/>
<stop offset="1" stop-color="#808080" stop-opacity="0.1"/>
</linearGradient>
<linearGradient id="paint1_linear" x1="5117.13" y1="4702.18" x2="5117.13" y2="4532.99" gradientUnits="userSpaceOnUse">
<stop stop-color="#808080" stop-opacity="0.25"/>
<stop offset="0.54" stop-color="#808080" stop-opacity="0.12"/>
<stop offset="1" stop-color="#808080" stop-opacity="0.1"/>
</linearGradient>
<clipPath id="clip0">
<rect width="588.823" height="425.9" fill="white"/>
</clipPath>
</defs>
</svg>
