<svg width="41" height="41" viewBox="0 0 41 41" fill="none" xmlns="http://www.w3.org/2000/svg">
<path d="M20.0878 40.1755C31.1819 40.1755 40.1755 31.1819 40.1755 20.0878C40.1755 8.99359 31.1819 0 20.0878 0C8.99359 0 0 8.99359 0 20.0878C0 31.1819 8.99359 40.1755 20.0878 40.1755Z" fill="#C4C4C4"/>
<path d="M20.2646 13.8485C16.8607 13.8485 14.1151 16.5941 14.1151 19.998C14.1151 23.402 16.8607 26.1476 20.2646 26.1476C23.6685 26.1476 26.4142 23.402 26.4142 19.998C26.4142 16.5941 23.6685 13.8485 20.2646 13.8485ZM20.2646 23.996C18.0649 23.996 16.2666 22.2031 16.2666 19.998C16.2666 17.793 18.0596 16 20.2646 16C22.4697 16 24.2626 17.793 24.2626 19.998C24.2626 22.2031 22.4643 23.996 20.2646 23.996ZM28.1 13.597C28.1 14.3944 27.4578 15.0313 26.6657 15.0313C25.8683 15.0313 25.2314 14.3891 25.2314 13.597C25.2314 12.8048 25.8736 12.1626 26.6657 12.1626C27.4578 12.1626 28.1 12.8048 28.1 13.597ZM32.173 15.0527C32.082 13.1313 31.6431 11.4294 30.2355 10.0271C28.8333 8.62485 27.1313 8.18599 25.2099 8.08965C23.2297 7.97728 17.2942 7.97728 15.314 8.08965C13.3979 8.18064 11.696 8.61953 10.2884 10.0218C8.88076 11.424 8.44725 13.126 8.35091 15.0474C8.2385 17.0276 8.2385 22.9631 8.35091 24.9434C8.4419 26.8647 8.88076 28.5667 10.2884 29.969C11.696 31.3712 13.3926 31.8101 15.314 31.9064C17.2942 32.0188 23.2297 32.0188 25.2099 31.9064C27.1313 31.8154 28.8333 31.3766 30.2355 29.969C31.6378 28.5667 32.0767 26.8647 32.173 24.9434C32.2854 22.9631 32.2854 17.033 32.173 15.0527ZM29.6147 27.0681C29.1972 28.1171 28.3891 28.9253 27.3347 29.3481C25.7558 29.9743 22.0094 29.8298 20.2646 29.8298C18.5198 29.8298 14.768 29.969 13.1945 29.3481C12.1455 28.9307 11.3374 28.1225 10.9145 27.0681C10.2884 25.4893 10.4329 21.7428 10.4329 19.998C10.4329 18.2533 10.2937 14.5015 10.9145 12.9279C11.332 11.8789 12.1402 11.0708 13.1945 10.648C14.7734 10.0218 18.5198 10.1663 20.2646 10.1663C22.0094 10.1663 25.7612 10.0271 27.3347 10.648C28.3837 11.0654 29.1919 11.8736 29.6147 12.9279C30.2409 14.5068 30.0964 18.2533 30.0964 19.998C30.0964 21.7428 30.2409 25.4946 29.6147 27.0681Z" fill="url(#paint0_linear)"/>
<defs>
<linearGradient id="paint0_linear" x1="20.262" y1="8.00536" x2="20.262" y2="31.9907" gradientUnits="userSpaceOnUse">
<stop stop-color="#6F1717"/>
<stop offset="0.609375" stop-color="#191E52" stop-opacity="0.79"/>
<stop offset="1" stop-color="#130937" stop-opacity="0.94"/>
</linearGradient>
</defs>
</svg>
