<svg width="126" height="39" viewBox="0 0 126 39" fill="none" xmlns="http://www.w3.org/2000/svg">
<path d="M40.4418 21.4404C40.4132 21.5738 40.3989 21.6835 40.3989 21.7692C40.3989 22.16 40.5133 22.4603 40.742 22.67C40.9803 22.8797 41.2949 22.9846 41.6857 22.9846C42.086 22.9846 42.4149 22.9131 42.6722 22.7701C42.9391 22.6176 43.0726 22.3936 43.0726 22.0981C43.0726 21.8026 42.9296 21.5691 42.6437 21.3975C42.3672 21.2164 42.0288 21.0734 41.6285 20.9686C41.2377 20.8637 40.8421 20.7493 40.4418 20.6254C40.0414 20.492 39.6983 20.287 39.4123 20.0106C39.1359 19.7342 38.9977 19.3863 38.9977 18.9669C38.9977 18.3092 39.3456 17.7563 40.0414 17.3083C40.7373 16.8603 41.4665 16.6363 42.229 16.6363C43.0678 16.6363 43.7065 16.8079 44.1449 17.151C44.4023 17.3512 44.531 17.6181 44.531 17.9517C44.531 18.2758 44.4023 18.5427 44.1449 18.7524C43.8971 18.9526 43.5921 19.0526 43.2299 19.0526C43.1536 19.0526 43.0583 19.0431 42.9439 19.024C42.9725 18.9001 42.9868 18.7905 42.9868 18.6952C42.9868 18.4188 42.882 18.2091 42.6722 18.0661C42.4625 17.9231 42.1766 17.8516 41.8144 17.8516C41.4617 17.8516 41.1376 17.9231 40.8421 18.0661C40.7277 18.2186 40.6705 18.414 40.6705 18.6523C40.6705 18.8906 40.8088 19.086 41.0852 19.2385C41.3616 19.3815 41.6952 19.5102 42.086 19.6246C42.4864 19.7294 42.8867 19.8533 43.2871 19.9963C43.6874 20.1298 44.0258 20.3442 44.3022 20.6397C44.5786 20.9257 44.7168 21.2879 44.7168 21.7263C44.7168 22.4412 44.3594 23.037 43.6445 23.5136C42.9391 23.9806 42.21 24.2142 41.4569 24.2142C40.7039 24.2142 40.0796 24.0807 39.5839 23.8138C39.0978 23.5374 38.8547 23.1228 38.8547 22.5699C38.8547 22.2268 38.9786 21.9503 39.2265 21.7406C39.4838 21.5214 39.7936 21.4118 40.1558 21.4118C40.2321 21.4118 40.3274 21.4213 40.4418 21.4404ZM48.0923 22.6414C48.4831 22.7844 48.9358 22.8559 49.4506 22.8559C49.9653 22.8559 50.418 22.7558 50.8089 22.5556C51.2759 21.7549 51.5095 20.797 51.5095 19.6818C51.5095 18.557 51.314 17.9946 50.9232 17.9946C50.4371 17.9946 49.889 18.4855 49.279 19.4673C48.6785 20.4491 48.2829 21.5071 48.0923 22.6414ZM48.0923 19.7103C49.1026 17.7182 50.2226 16.7221 51.4523 16.7221C52.1004 16.7221 52.5627 16.989 52.8392 17.5228C53.1251 18.047 53.2681 18.7143 53.2681 19.5245C53.2681 20.6874 52.9249 21.7454 52.2386 22.6986C51.5523 23.6518 50.6897 24.1284 49.6507 24.1284C49.0597 24.1284 48.5212 24.0331 48.0351 23.8424C48.0541 25.1483 48.1352 26.3446 48.2781 27.4312C47.9731 27.5456 47.6586 27.6028 47.3345 27.6028C47.0104 27.6028 46.7435 27.4932 46.5338 27.2739C46.3241 27.0642 46.2192 26.7401 46.2192 26.3017C46.2192 25.8632 46.2764 25.1149 46.3908 24.0569C46.5052 22.9989 46.5624 22.1696 46.5624 21.5691C46.5624 19.5864 46.4575 18.0566 46.2478 16.9795C46.5529 16.8651 46.8722 16.8079 47.2058 16.8079C47.5489 16.8079 47.8111 16.908 47.9922 17.1081C48.1828 17.2988 48.2781 17.6038 48.2781 18.0232C48.2781 18.4331 48.2162 18.9955 48.0923 19.7103ZM57.6181 24.2142C56.5696 24.2142 55.7975 23.9092 55.3018 23.2991C54.8062 22.6795 54.5584 21.8217 54.5584 20.7255C54.5584 19.6198 54.8872 18.6618 55.5449 17.8516C56.2026 17.0414 57.0462 16.6363 58.0756 16.6363C60.1917 16.6363 61.2498 17.8278 61.2498 20.2108C61.2498 21.326 60.9066 22.2744 60.2203 23.056C59.534 23.8281 58.6666 24.2142 57.6181 24.2142ZM56.5887 18.2091C56.4171 18.7619 56.3313 19.3148 56.3313 19.8676C56.3313 20.4205 56.3504 20.8494 56.3885 21.1544C56.4266 21.4595 56.4981 21.7645 56.603 22.0695C56.8222 22.6891 57.2511 22.9989 57.8898 22.9989C58.5379 22.9989 58.9621 22.8273 59.1623 22.4841C59.372 22.141 59.4768 21.612 59.4768 20.8971C59.4768 18.8668 58.9955 17.8516 58.0327 17.8516C57.4799 17.8516 56.9985 17.9708 56.5887 18.2091ZM65.048 23.871C64.7525 23.9854 64.4379 24.0426 64.1043 24.0426C63.7707 24.0426 63.499 23.9663 63.2893 23.8138C63.0892 23.6518 62.9891 23.4326 62.9891 23.1561C62.9891 22.8702 63.032 22.3555 63.1178 21.612C63.2035 20.8685 63.2464 20.1488 63.2464 19.453C63.2464 18.7476 63.1368 17.9231 62.9176 16.9795C63.2226 16.8651 63.5229 16.8079 63.8184 16.8079C64.1138 16.8079 64.3664 16.908 64.5761 17.1081C64.7954 17.3083 64.905 17.5752 64.905 17.9088C64.905 18.0804 64.8764 18.3378 64.8192 18.6809C64.762 19.0145 64.7287 19.2671 64.7191 19.4387C65.0909 18.5903 65.5293 17.9279 66.0345 17.4513C66.5492 16.9652 67.0592 16.7221 67.5644 16.7221C67.9171 16.7221 68.1983 16.846 68.408 17.0938C68.6177 17.3417 68.7225 17.6562 68.7225 18.0375C68.7225 18.4092 68.6272 18.7143 68.4366 18.9526C68.2459 19.1813 68.0076 19.2957 67.7217 19.2957C67.4452 19.2957 67.2212 19.2671 67.0497 19.2099C67.0783 19.0955 67.0926 18.9907 67.0926 18.8954C67.0926 18.5046 66.9544 18.3092 66.6779 18.3092C66.2585 18.3092 65.863 18.7333 65.4912 19.5817C65.129 20.4205 64.8859 21.2069 64.762 21.9408C64.8097 22.6557 64.905 23.2991 65.048 23.871ZM70.6103 14.7061C70.9153 14.5536 71.2251 14.4773 71.5397 14.4773C71.8542 14.4773 72.1068 14.5774 72.2974 14.7776C72.4976 14.9778 72.5977 15.2732 72.5977 15.664C72.5977 16.0549 72.5739 16.4981 72.5262 16.9938C73.2411 16.9938 73.9226 16.8937 74.5708 16.6935C74.6852 16.8841 74.7424 17.1081 74.7424 17.3655C74.7424 17.6133 74.628 17.8183 74.3992 17.9803C74.18 18.1328 73.956 18.2091 73.7272 18.2091C73.4985 18.2091 73.2411 18.1805 72.9551 18.1233C72.6692 18.0661 72.4833 18.0327 72.3975 18.0232C72.388 18.109 72.3594 18.2806 72.3117 18.5379C72.2736 18.7953 72.2402 19.0193 72.2117 19.2099C72.1354 19.7342 72.0973 20.2966 72.0973 20.8971C72.0973 22.2029 72.5214 22.8559 73.3698 22.8559C73.6843 22.8559 74.0465 22.7463 74.4564 22.527C74.5803 22.7081 74.6423 22.9417 74.6423 23.2276C74.6423 23.5136 74.485 23.7376 74.1705 23.8996C73.8654 24.0521 73.4985 24.1284 73.0695 24.1284C71.3919 24.1284 70.5531 23.1752 70.5531 21.2688C70.5531 20.9924 70.5912 20.492 70.6675 19.7675C70.7533 19.0431 70.7962 18.4569 70.7962 18.0089C70.3386 18.0375 69.9717 18.1185 69.6952 18.252C69.5808 18.0804 69.5237 17.885 69.5237 17.6658C69.5237 17.437 69.6047 17.2511 69.7667 17.1081C69.9288 16.9556 70.1289 16.8794 70.3672 16.8794C70.6055 16.8794 70.7628 16.8841 70.8391 16.8937C70.8486 16.8174 70.8534 16.7173 70.8534 16.5934C70.8534 15.8785 70.7723 15.2494 70.6103 14.7061ZM77.5381 21.4404C77.5095 21.5738 77.4952 21.6835 77.4952 21.7692C77.4952 22.16 77.6095 22.4603 77.8383 22.67C78.0766 22.8797 78.3912 22.9846 78.782 22.9846C79.1823 22.9846 79.5112 22.9131 79.7685 22.7701C80.0354 22.6176 80.1689 22.3936 80.1689 22.0981C80.1689 21.8026 80.0259 21.5691 79.7399 21.3975C79.4635 21.2164 79.1251 21.0734 78.7248 20.9686C78.334 20.8637 77.9384 20.7493 77.5381 20.6254C77.1377 20.492 76.7946 20.287 76.5086 20.0106C76.2322 19.7342 76.094 19.3863 76.094 18.9669C76.094 18.3092 76.4419 17.7563 77.1377 17.3083C77.8335 16.8603 78.5627 16.6363 79.3253 16.6363C80.1641 16.6363 80.8027 16.8079 81.2412 17.151C81.4986 17.3512 81.6272 17.6181 81.6272 17.9517C81.6272 18.2758 81.4986 18.5427 81.2412 18.7524C80.9934 18.9526 80.6884 19.0526 80.3261 19.0526C80.2499 19.0526 80.1546 19.0431 80.0402 19.024C80.0688 18.9001 80.0831 18.7905 80.0831 18.6952C80.0831 18.4188 79.9782 18.2091 79.7685 18.0661C79.5588 17.9231 79.2729 17.8516 78.9107 17.8516C78.558 17.8516 78.2339 17.9231 77.9384 18.0661C77.824 18.2186 77.7668 18.414 77.7668 18.6523C77.7668 18.8906 77.905 19.086 78.1815 19.2385C78.4579 19.3815 78.7915 19.5102 79.1823 19.6246C79.5827 19.7294 79.983 19.8533 80.3833 19.9963C80.7837 20.1298 81.1221 20.3442 81.3985 20.6397C81.6749 20.9257 81.8131 21.2879 81.8131 21.7263C81.8131 22.4412 81.4557 23.037 80.7408 23.5136C80.0354 23.9806 79.3062 24.2142 78.5532 24.2142C77.8002 24.2142 77.1758 24.0807 76.6802 23.8138C76.1941 23.5374 75.951 23.1228 75.951 22.5699C75.951 22.2268 76.0749 21.9503 76.3227 21.7406C76.5801 21.5214 76.8899 21.4118 77.2521 21.4118C77.3284 21.4118 77.4237 21.4213 77.5381 21.4404ZM86.1894 24.2142C85.1695 24.2142 84.3879 23.9425 83.8445 23.3992C83.3012 22.8559 83.0296 22.0743 83.0296 21.0543C83.0296 19.8152 83.3775 18.7715 84.0733 17.9231C84.7691 17.0652 85.6937 16.6363 86.8471 16.6363C87.5048 16.6363 88.0386 16.7698 88.4484 17.0366C88.8583 17.294 89.0633 17.68 89.0633 18.1948C89.0633 18.5284 88.9298 18.8286 88.6629 19.0955C88.396 19.3529 88.0958 19.4816 87.7622 19.4816C87.6859 19.4816 87.5906 19.472 87.4762 19.453C87.5048 19.3291 87.5191 19.2195 87.5191 19.1241C87.5191 18.781 87.4285 18.4903 87.2474 18.252C87.0663 18.0137 86.7661 17.8945 86.3467 17.8945C85.9273 17.8945 85.5365 18.0661 85.1742 18.4092C84.9169 19.0765 84.7882 19.9105 84.7882 20.9114C84.7882 22.2744 85.3029 22.956 86.3324 22.956C86.8852 22.956 87.2951 22.7796 87.562 22.4269C87.8384 22.0647 87.9766 21.6596 87.9766 21.2116C88.3007 21.2116 88.5819 21.2926 88.8202 21.4547C89.0585 21.6167 89.1776 21.8407 89.1776 22.1267C89.1776 22.7463 88.8583 23.2515 88.2197 23.6423C87.5906 24.0235 86.9138 24.2142 86.1894 24.2142ZM97.6147 18.2663L97.4717 21.4118C97.4717 22.2506 97.61 23.0989 97.8864 23.9568C97.5909 24.0712 97.2906 24.1284 96.9856 24.1284C96.1563 24.1284 95.7417 23.6899 95.7417 22.813C95.7417 22.1648 95.7989 21.4023 95.9133 20.5253C96.0277 19.6484 96.0849 19.1098 96.0849 18.9097C96.0849 18.414 95.8609 18.1662 95.4129 18.1662C94.9363 18.1662 94.4072 18.6142 93.8258 19.5102C93.2443 20.3966 92.9107 21.1401 92.8249 21.7406C92.844 22.0171 92.9393 22.7272 93.1109 23.871C92.8154 23.9854 92.4913 24.0426 92.1386 24.0426C91.4047 24.0426 91.0377 23.6852 91.0377 22.9703C91.0377 22.6271 91.0901 21.9551 91.195 20.9543C91.2998 19.9439 91.3523 19.1337 91.3523 18.5236C91.3523 16.4933 91.2379 14.8157 91.0091 13.4908C91.3141 13.3764 91.6287 13.3192 91.9528 13.3192C92.2769 13.3192 92.5437 13.4288 92.7534 13.648C92.9727 13.8578 93.0823 14.1485 93.0823 14.5202C93.0823 14.892 93.0299 15.6593 92.925 16.8222C92.8297 17.9851 92.782 18.8906 92.782 19.5388C93.1157 18.8334 93.6018 18.19 94.2404 17.6086C94.8886 17.0176 95.532 16.7221 96.1706 16.7221C97.1334 16.7221 97.6147 17.2368 97.6147 18.2663ZM102.519 24.2142C101.47 24.2142 100.698 23.9092 100.203 23.2991C99.7071 22.6795 99.4593 21.8217 99.4593 20.7255C99.4593 19.6198 99.7881 18.6618 100.446 17.8516C101.104 17.0414 101.947 16.6363 102.977 16.6363C105.093 16.6363 106.151 17.8278 106.151 20.2108C106.151 21.326 105.808 22.2744 105.121 23.056C104.435 23.8281 103.568 24.2142 102.519 24.2142ZM101.49 18.2091C101.318 18.7619 101.232 19.3148 101.232 19.8676C101.232 20.4205 101.251 20.8494 101.289 21.1544C101.328 21.4595 101.399 21.7645 101.504 22.0695C101.723 22.6891 102.152 22.9989 102.791 22.9989C103.439 22.9989 103.863 22.8273 104.063 22.4841C104.273 22.141 104.378 21.612 104.378 20.8971C104.378 18.8668 103.896 17.8516 102.934 17.8516C102.381 17.8516 101.899 17.9708 101.49 18.2091ZM107.904 16.9366C108.209 16.8508 108.514 16.8079 108.819 16.8079C109.134 16.8079 109.401 16.9032 109.62 17.0938C109.839 17.2845 109.949 17.5323 109.949 17.8373C109.949 18.1328 109.896 18.6523 109.792 19.3958C109.696 20.1298 109.649 20.7017 109.649 21.1115C109.649 22.1791 109.749 23.0989 109.949 23.871C109.653 23.9854 109.334 24.0426 108.991 24.0426C108.648 24.0426 108.376 23.9663 108.176 23.8138C107.976 23.6518 107.876 23.423 107.876 23.1275C107.876 22.8225 107.933 22.3269 108.047 21.6406C108.162 20.9543 108.219 20.3871 108.219 19.9391C108.219 18.7476 108.114 17.7468 107.904 16.9366ZM108.09 13.7052C108.424 13.5527 108.753 13.4765 109.077 13.4765C109.401 13.4765 109.639 13.5623 109.792 13.7338C109.954 13.8959 110.035 14.1389 110.035 14.463C110.035 14.7871 109.925 15.0731 109.706 15.3209C109.496 15.5687 109.22 15.6926 108.877 15.6926C108.171 15.6926 107.818 15.3257 107.818 14.5917C107.818 14.2676 107.909 13.9721 108.09 13.7052ZM114.909 24.2142C113.889 24.2142 113.107 23.9425 112.564 23.3992C112.02 22.8559 111.749 22.0743 111.749 21.0543C111.749 19.8152 112.097 18.7715 112.792 17.9231C113.488 17.0652 114.413 16.6363 115.566 16.6363C116.224 16.6363 116.758 16.7698 117.168 17.0366C117.577 17.294 117.782 17.68 117.782 18.1948C117.782 18.5284 117.649 18.8286 117.382 19.0955C117.115 19.3529 116.815 19.4816 116.481 19.4816C116.405 19.4816 116.31 19.472 116.195 19.453C116.224 19.3291 116.238 19.2195 116.238 19.1241C116.238 18.781 116.148 18.4903 115.967 18.252C115.785 18.0137 115.485 17.8945 115.066 17.8945C114.646 17.8945 114.256 18.0661 113.893 18.4092C113.636 19.0765 113.507 19.9105 113.507 20.9114C113.507 22.2744 114.022 22.956 115.052 22.956C115.604 22.956 116.014 22.7796 116.281 22.4269C116.558 22.0647 116.696 21.6596 116.696 21.2116C117.02 21.2116 117.301 21.2926 117.539 21.4547C117.778 21.6167 117.897 21.8407 117.897 22.1267C117.897 22.7463 117.577 23.2515 116.939 23.6423C116.31 24.0235 115.633 24.2142 114.909 24.2142ZM121.015 20.797C121.015 21.4833 121.125 22.0266 121.344 22.4269C121.563 22.8178 121.93 23.0132 122.445 23.0132C122.96 23.0132 123.36 22.8416 123.646 22.4984C123.941 22.1458 124.089 21.7216 124.089 21.2259C124.413 21.2259 124.694 21.3069 124.933 21.469C125.171 21.631 125.29 21.855 125.29 22.141C125.29 22.732 124.976 23.2276 124.346 23.628C123.717 24.0188 123.055 24.2142 122.359 24.2142C121.272 24.2142 120.486 23.9235 120 23.342C119.514 22.751 119.271 21.8789 119.271 20.7255C119.271 19.5721 119.595 18.6046 120.243 17.823C120.901 17.0319 121.773 16.6363 122.86 16.6363C123.603 16.6363 124.199 16.8079 124.647 17.151C125.104 17.4846 125.333 18.0089 125.333 18.7238C125.333 19.4292 125.009 19.9629 124.361 20.3252C123.722 20.6778 122.941 20.8542 122.016 20.8542C121.692 20.8542 121.358 20.8351 121.015 20.797ZM121.029 19.6675C121.315 19.7246 121.616 19.7532 121.93 19.7532C122.616 19.7532 123.193 19.6246 123.66 19.3672C123.717 19.1384 123.746 18.9573 123.746 18.8239C123.746 18.4903 123.627 18.2377 123.389 18.0661C123.15 17.8945 122.821 17.8087 122.402 17.8087C121.992 17.8087 121.62 17.9422 121.287 18.2091C121.115 18.7047 121.029 19.1909 121.029 19.6675Z" fill="#931B1B"/>
<path fill-rule="evenodd" clip-rule="evenodd" d="M0 19.2128C0 17.8712 0.137497 16.5618 0.399166 15.2978C1.71084 14.4046 3.28538 13.719 5.17578 13.3858C8.49773 12.8003 12.8266 13.2978 18.4583 15.7225C24.1599 18.1774 28.1358 18.3675 30.877 17.1735C33.6285 15.975 35.042 13.4246 35.7174 10.6322C35.7912 10.3272 35.8563 10.0187 35.9135 9.70793C37.5122 12.5108 38.4255 15.7551 38.4255 19.2128C38.4255 21.8762 37.8836 24.4131 36.9039 26.7191C34.3988 27.6916 30.6924 27.5022 25.2493 25.1586C19.5423 22.7015 15.0861 22.1672 11.6083 22.7801C8.1251 23.394 5.65515 25.1533 3.91647 27.2206C3.44302 27.7835 3.02384 28.3691 2.65295 28.9606C0.967171 26.1029 0 22.7708 0 19.2128ZM3.02287 29.5621C6.43747 34.8926 12.4125 38.4255 19.2128 38.4255C26.8531 38.4255 33.4519 33.9657 36.5477 27.5074C33.8548 28.3205 30.1244 27.9435 25.0002 25.7372C19.3685 23.3125 15.0396 22.815 11.7176 23.4005C8.40114 23.985 6.05681 25.6544 4.39855 27.626C3.87436 28.2493 3.41865 28.9029 3.02287 29.5621ZM19.2128 0C26.0188 0 31.9983 3.53899 35.4115 8.87716C35.3332 9.41995 35.2324 9.95802 35.1051 10.4841C34.453 13.1805 33.1217 15.5086 30.6255 16.596C28.1191 17.6877 24.3446 17.5711 18.7074 15.144C13.0005 12.6868 8.54421 12.1525 5.06644 12.7655C3.34159 13.0695 1.8652 13.6543 0.603028 14.4184C2.73279 6.12731 10.2572 0 19.2128 0Z" fill="#C4C4C4"/>
</svg>
