<svg width="149" height="149" viewBox="0 0 149 149" fill="none" xmlns="http://www.w3.org/2000/svg">
<mask id="path-1-inside-1" fill="white">
<path fill-rule="evenodd" clip-rule="evenodd" d="M74.5 149C115.645 149 149 115.645 149 74.5C149 33.3548 115.645 0 74.5 0C33.3548 0 0 33.3548 0 74.5C0 115.645 33.3548 149 74.5 149ZM74.5 119.099C99.1311 119.099 119.099 99.1311 119.099 74.5C119.099 49.8689 99.1311 29.9014 74.5 29.9014C49.8689 29.9014 29.9014 49.8689 29.9014 74.5C29.9014 99.1311 49.8689 119.099 74.5 119.099Z"/>
</mask>
<path fill-rule="evenodd" clip-rule="evenodd" d="M74.5 149C115.645 149 149 115.645 149 74.5C149 33.3548 115.645 0 74.5 0C33.3548 0 0 33.3548 0 74.5C0 115.645 33.3548 149 74.5 149ZM74.5 119.099C99.1311 119.099 119.099 99.1311 119.099 74.5C119.099 49.8689 99.1311 29.9014 74.5 29.9014C49.8689 29.9014 29.9014 49.8689 29.9014 74.5C29.9014 99.1311 49.8689 119.099 74.5 119.099Z" fill="white" fill-opacity="0.97"/>
<path d="M146.973 74.5C146.973 114.526 114.526 146.973 74.5 146.973V151.027C116.765 151.027 151.027 116.765 151.027 74.5H146.973ZM74.5 2.02721C114.526 2.02721 146.973 34.4744 146.973 74.5H151.027C151.027 32.2352 116.765 -2.02721 74.5 -2.02721V2.02721ZM2.02721 74.5C2.02721 34.4744 34.4744 2.02721 74.5 2.02721V-2.02721C32.2352 -2.02721 -2.02721 32.2352 -2.02721 74.5H2.02721ZM74.5 146.973C34.4744 146.973 2.02721 114.526 2.02721 74.5H-2.02721C-2.02721 116.765 32.2352 151.027 74.5 151.027V146.973ZM117.071 74.5C117.071 98.0116 98.0116 117.071 74.5 117.071V121.126C100.251 121.126 121.126 100.251 121.126 74.5H117.071ZM74.5 31.9286C98.0116 31.9286 117.071 50.9885 117.071 74.5H121.126C121.126 48.7493 100.251 27.8742 74.5 27.8742V31.9286ZM31.9286 74.5C31.9286 50.9885 50.9885 31.9286 74.5 31.9286V27.8742C48.7493 27.8742 27.8742 48.7493 27.8742 74.5H31.9286ZM74.5 117.071C50.9885 117.071 31.9286 98.0116 31.9286 74.5H27.8742C27.8742 100.251 48.7493 121.126 74.5 121.126V117.071Z" fill="#2512FF" mask="url(#path-1-inside-1)"/>
<path d="M16.2175 63.3503L18.9483 71.755H27.7854L20.636 76.9493L23.3669 85.3539L16.2175 80.1596L9.06808 85.3539L11.7989 76.9493L4.64951 71.755H13.4866L16.2175 63.3503Z" fill="#600E0E"/>
<path d="M33.4489 20.7789L36.1797 29.1835H45.0169L37.8675 34.3779L40.5983 42.7825L33.4489 37.5881L26.2995 42.7825L29.0303 34.3779L21.881 29.1835H30.7181L33.4489 20.7789Z" fill="#A61D1D"/>
<path d="M74.5002 0L77.231 8.40461H86.0681L78.9187 13.5989L81.6496 22.0036L74.5002 16.8092L67.3508 22.0036L70.0816 13.5989L62.9322 8.40461H71.7694L74.5002 0Z" fill="#D73131"/>
<path d="M119.606 20.7789L122.336 29.1835H131.174L124.024 34.3779L126.755 42.7825L119.606 37.5881L112.456 42.7825L115.187 34.3779L108.038 29.1835H116.875L119.606 20.7789Z" fill="#BE1A1A"/>
<path d="M131.769 63.3503L134.5 71.755H143.337L136.187 76.9493L138.918 85.3539L131.769 80.1596L124.619 85.3539L127.35 76.9493L120.201 71.755H129.038L131.769 63.3503Z" fill="#B32727"/>
<path d="M28.3779 69.6853C80.0747 133.289 119.608 69.6853 119.608 69.6853" stroke="#9D8484" stroke-width="2.02721"/>
</svg>
