<svg width="172" height="134" viewBox="0 0 172 134" fill="none" xmlns="http://www.w3.org/2000/svg">
<path d="M93.6719 84.9844C93.6719 83.3281 92.8438 82.0312 91.1875 81.0938C89.5625 80.125 86.9375 79.2656 83.3125 78.5156C71.25 75.9844 65.2188 70.8594 65.2188 63.1406C65.2188 58.6406 67.0781 54.8906 70.7969 51.8906C74.5469 48.8594 79.4375 47.3438 85.4688 47.3438C91.9062 47.3438 97.0469 48.8594 100.891 51.8906C104.766 54.9219 106.703 58.8594 106.703 63.7031H93.1562C93.1562 61.7656 92.5312 60.1719 91.2812 58.9219C90.0312 57.6406 88.0781 57 85.4219 57C83.1406 57 81.375 57.5156 80.125 58.5469C78.875 59.5781 78.25 60.8906 78.25 62.4844C78.25 63.9844 78.9531 65.2031 80.3594 66.1406C81.7969 67.0469 84.2031 67.8438 87.5781 68.5312C90.9531 69.1875 93.7969 69.9375 96.1094 70.7812C103.266 73.4062 106.844 77.9531 106.844 84.4219C106.844 89.0469 104.859 92.7969 100.891 95.6719C96.9219 98.5156 91.7969 99.9375 85.5156 99.9375C81.2656 99.9375 77.4844 99.1875 74.1719 97.6875C70.8906 96.1562 68.3125 94.0781 66.4375 91.4531C64.5625 88.7969 63.625 85.9375 63.625 82.875H76.4688C76.5938 85.2812 77.4844 87.125 79.1406 88.4062C80.7969 89.6875 83.0156 90.3281 85.7969 90.3281C88.3906 90.3281 90.3438 89.8438 91.6562 88.875C93 87.875 93.6719 86.5781 93.6719 84.9844Z" fill="black"/>
<line x1="85.5" y1="49.0249" x2="85.5" y2="28.9999" stroke="black" stroke-width="15"/>
<line x1="85.5" y1="114.025" x2="85.5" y2="93.9999" stroke="black" stroke-width="15"/>
<mask id="path-4-inside-1" fill="white">
<path fill-rule="evenodd" clip-rule="evenodd" d="M105 134C142.003 134 172 104.003 172 67C172 29.9969 142.003 0 105 0C67.9969 0 38 29.9969 38 67C38 104.003 67.9969 134 105 134ZM104.5 127C137.913 127 165 99.9132 165 66.5C165 33.0868 137.913 6 104.5 6C71.0868 6 44 33.0868 44 66.5C44 99.9132 71.0868 127 104.5 127Z"/>
</mask>
<path fill-rule="evenodd" clip-rule="evenodd" d="M105 134C142.003 134 172 104.003 172 67C172 29.9969 142.003 0 105 0C67.9969 0 38 29.9969 38 67C38 104.003 67.9969 134 105 134ZM104.5 127C137.913 127 165 99.9132 165 66.5C165 33.0868 137.913 6 104.5 6C71.0868 6 44 33.0868 44 66.5C44 99.9132 71.0868 127 104.5 127Z" fill="#C4C4C4"/>
<path d="M169 67C169 102.346 140.346 131 105 131V137C143.66 137 175 105.66 175 67H169ZM105 3C140.346 3 169 31.6538 169 67H175C175 28.3401 143.66 -3 105 -3V3ZM41 67C41 31.6538 69.6538 3 105 3V-3C66.3401 -3 35 28.3401 35 67H41ZM105 131C69.6538 131 41 102.346 41 67H35C35 105.66 66.3401 137 105 137V131ZM162 66.5C162 98.2564 136.256 124 104.5 124V130C139.57 130 168 101.57 168 66.5H162ZM104.5 9C136.256 9 162 34.7436 162 66.5H168C168 31.4299 139.57 3 104.5 3V9ZM47 66.5C47 34.7436 72.7436 9 104.5 9V3C69.4299 3 41 31.4299 41 66.5H47ZM104.5 124C72.7436 124 47 98.2564 47 66.5H41C41 101.57 69.4299 130 104.5 130V124Z" fill="#565661" mask="url(#path-4-inside-1)"/>
<mask id="path-6-inside-2" fill="white">
<path fill-rule="evenodd" clip-rule="evenodd" d="M88 134C125.003 134 155 104.003 155 67C155 29.9969 125.003 0 88 0C50.9969 0 21 29.9969 21 67C21 104.003 50.9969 134 88 134ZM87.5 127C120.913 127 148 99.9132 148 66.5C148 33.0868 120.913 6 87.5 6C54.0868 6 27 33.0868 27 66.5C27 99.9132 54.0868 127 87.5 127Z"/>
</mask>
<path fill-rule="evenodd" clip-rule="evenodd" d="M88 134C125.003 134 155 104.003 155 67C155 29.9969 125.003 0 88 0C50.9969 0 21 29.9969 21 67C21 104.003 50.9969 134 88 134ZM87.5 127C120.913 127 148 99.9132 148 66.5C148 33.0868 120.913 6 87.5 6C54.0868 6 27 33.0868 27 66.5C27 99.9132 54.0868 127 87.5 127Z" fill="#C4C4C4"/>
<path d="M152 67C152 102.346 123.346 131 88 131V137C126.66 137 158 105.66 158 67H152ZM88 3C123.346 3 152 31.6538 152 67H158C158 28.3401 126.66 -3 88 -3V3ZM24 67C24 31.6538 52.6538 3 88 3V-3C49.3401 -3 18 28.3401 18 67H24ZM88 131C52.6538 131 24 102.346 24 67H18C18 105.66 49.3401 137 88 137V131ZM145 66.5C145 98.2564 119.256 124 87.5 124V130C122.57 130 151 101.57 151 66.5H145ZM87.5 9C119.256 9 145 34.7436 145 66.5H151C151 31.4299 122.57 3 87.5 3V9ZM30 66.5C30 34.7436 55.7436 9 87.5 9V3C52.4299 3 24 31.4299 24 66.5H30ZM87.5 124C55.7436 124 30 98.2564 30 66.5H24C24 101.57 52.4299 130 87.5 130V124Z" fill="#565661" mask="url(#path-6-inside-2)"/>
<mask id="path-8-inside-3" fill="white">
<path fill-rule="evenodd" clip-rule="evenodd" d="M67 134C104.003 134 134 104.003 134 67C134 29.9969 104.003 0 67 0C29.9969 0 0 29.9969 0 67C0 104.003 29.9969 134 67 134ZM66.5 127C99.9132 127 127 99.9132 127 66.5C127 33.0868 99.9132 6 66.5 6C33.0868 6 6 33.0868 6 66.5C6 99.9132 33.0868 127 66.5 127Z"/>
</mask>
<path fill-rule="evenodd" clip-rule="evenodd" d="M67 134C104.003 134 134 104.003 134 67C134 29.9969 104.003 0 67 0C29.9969 0 0 29.9969 0 67C0 104.003 29.9969 134 67 134ZM66.5 127C99.9132 127 127 99.9132 127 66.5C127 33.0868 99.9132 6 66.5 6C33.0868 6 6 33.0868 6 66.5C6 99.9132 33.0868 127 66.5 127Z" fill="#C4C4C4"/>
<path d="M131 67C131 102.346 102.346 131 67 131V137C105.66 137 137 105.66 137 67H131ZM67 3C102.346 3 131 31.6538 131 67H137C137 28.3401 105.66 -3 67 -3V3ZM3 67C3 31.6538 31.6538 3 67 3V-3C28.3401 -3 -3 28.3401 -3 67H3ZM67 131C31.6538 131 3 102.346 3 67H-3C-3 105.66 28.3401 137 67 137V131ZM124 66.5C124 98.2564 98.2564 124 66.5 124V130C101.57 130 130 101.57 130 66.5H124ZM66.5 9C98.2564 9 124 34.7436 124 66.5H130C130 31.4299 101.57 3 66.5 3V9ZM9 66.5C9 34.7436 34.7436 9 66.5 9V3C31.4299 3 3 31.4299 3 66.5H9ZM66.5 124C34.7436 124 9 98.2564 9 66.5H3C3 101.57 31.4299 130 66.5 130V124Z" fill="#565661" mask="url(#path-8-inside-3)"/>
</svg>
