<svg width="131" height="121" viewBox="0 0 131 121" fill="none" xmlns="http://www.w3.org/2000/svg">
<path d="M65.5 0L76.3552 39.6543L116.71 22.7644L89.8915 55.3226L129.358 73.9155L85.0605 74.8606L93.9194 114.936L65.5 83.5558L37.0806 114.936L45.9395 74.8606L1.64222 73.9155L41.1085 55.3226L14.29 22.7644L54.6448 39.6543L65.5 0Z" fill="#990B0B" fill-opacity="0.84"/>
<path d="M46.7722 56.0895C46.7722 56.6063 46.9589 57.0083 47.3321 57.2954C47.7198 57.5681 48.2438 57.7045 48.9041 57.7045C49.5789 57.7045 50.1316 57.4677 50.5623 56.9939C50.993 56.5201 51.2083 55.8957 51.2083 55.1204C51.2083 53.4838 50.469 52.6655 48.9903 52.6655C48.7175 52.6655 48.2222 52.7445 47.5044 52.9024C46.801 53.046 46.2124 53.1177 45.7386 53.1177C45.2792 53.1177 44.8485 53.0316 44.4466 52.8593C44.7767 50.95 44.9418 49.1411 44.9418 47.4327C44.9418 46.2698 45.5807 45.6884 46.8584 45.6884C49.5573 45.6884 51.6533 45.4731 53.1464 45.0424C53.3187 45.6166 53.4048 46.1335 53.4048 46.5929C53.4048 47.0523 53.2325 47.4112 52.888 47.6696C52.5578 47.9136 52.1343 48.0357 51.6175 48.0357C51.115 48.0357 50.3613 47.9854 49.3564 47.8849C48.3514 47.7701 47.7413 47.7055 47.5259 47.6911C47.3537 48.4807 47.2675 49.6148 47.2675 51.0935C48.3012 50.8782 49.0908 50.7705 49.6363 50.7705C50.9571 50.7705 52.0266 51.0863 52.8449 51.718C53.6632 52.3497 54.0724 53.2685 54.0724 54.4744C54.0724 56.0392 53.4838 57.3097 52.3066 58.286C51.1437 59.2478 49.7368 59.7287 48.0858 59.7287C46.9804 59.7287 46.0257 59.5062 45.2218 59.0612C44.4322 58.6161 44.0374 57.9486 44.0374 57.0585C44.0374 56.4843 44.2312 56.0249 44.6188 55.6803C45.0064 55.3358 45.4946 55.1635 46.0832 55.1635C46.399 55.1635 46.6789 55.1994 46.923 55.2712C46.8225 55.5583 46.7722 55.831 46.7722 56.0895ZM64.7461 55.7664C64.9327 55.1778 65.0619 54.5964 65.1337 54.0222C65.2199 53.4479 65.2629 52.8306 65.2629 52.1702C65.2629 51.5098 65.227 50.9141 65.1553 50.3829C65.0835 49.8517 64.9543 49.3349 64.7676 48.8324C64.3657 47.7701 63.5617 47.2389 62.3558 47.2389C61.5949 47.2389 60.9489 47.5332 60.4177 48.1218C59.944 49.2559 59.7071 50.8279 59.7071 52.8378C59.7071 54.6754 59.9727 55.9674 60.5039 56.714C60.992 57.3743 61.6954 57.7045 62.6142 57.7045C63.131 57.7045 63.5689 57.5323 63.9278 57.1877C64.3011 56.8288 64.5738 56.355 64.7461 55.7664ZM68.1055 52.0195C68.1055 54.1729 67.5384 55.9961 66.4042 57.4892C65.2701 58.9822 63.7196 59.7287 61.7529 59.7287C60.59 59.7287 59.6281 59.4201 58.8673 58.8028C58.1207 58.1711 57.5967 57.3815 57.2953 56.434C57.0081 55.4721 56.8646 54.3452 56.8646 53.0531C56.8646 50.8854 57.4316 49.0406 58.5658 47.5188C59.7143 45.9827 61.2647 45.2147 63.2172 45.2147C64.38 45.2147 65.3347 45.5377 66.0812 46.1837C66.8421 46.8297 67.3661 47.6409 67.6532 48.6171C67.9547 49.5933 68.1055 50.7274 68.1055 52.0195ZM74.1416 43.8795C75.204 43.8795 76.0079 44.303 76.5534 45.1501C77.099 45.9827 77.3717 47.1599 77.3717 48.6817C77.3717 50.2034 77.1062 51.395 76.575 52.2564C76.0582 53.1034 75.247 53.5269 74.1416 53.5269C73.1223 53.5269 72.3399 53.1034 71.7944 52.2564C71.2632 51.395 70.9976 50.2034 70.9976 48.6817C70.9976 47.1599 71.2488 45.9827 71.7513 45.1501C72.2538 44.303 73.0505 43.8795 74.1416 43.8795ZM83.9828 44.0949L75.4552 59.4703H73.7971L82.3246 44.0949H83.9828ZM74.1416 45.2147C73.5961 45.2147 73.1941 45.509 72.9357 46.0976C72.6916 46.6718 72.5696 47.5332 72.5696 48.6817C72.5696 49.8302 72.6916 50.6987 72.9357 51.2873C73.1941 51.8759 73.5961 52.1702 74.1416 52.1702C75.247 52.1702 75.7997 51.0074 75.7997 48.6817C75.7997 46.3703 75.247 45.2147 74.1416 45.2147ZM83.5521 50.0383C84.6001 50.0383 85.3968 50.4618 85.9424 51.3089C86.5023 52.1415 86.7822 53.3187 86.7822 54.8405C86.7822 56.3622 86.5166 57.5538 85.9854 58.4152C85.4686 59.2622 84.6575 59.6857 83.5521 59.6857C82.5328 59.6857 81.7504 59.2622 81.2048 58.4152C80.6737 57.5538 80.4081 56.3622 80.4081 54.8405C80.4081 53.3187 80.6593 52.1415 81.1618 51.3089C81.6642 50.4618 82.461 50.0383 83.5521 50.0383ZM83.5521 51.395C83.0065 51.395 82.6046 51.6821 82.3462 52.2564C82.1021 52.8306 81.9801 53.692 81.9801 54.8405C81.9801 56.0033 82.1021 56.879 82.3462 57.4677C82.6046 58.0419 83.0065 58.329 83.5521 58.329C84.6575 58.329 85.2102 57.1662 85.2102 54.8405C85.2102 52.5435 84.6575 51.395 83.5521 51.395ZM55.0463 77.7287C53.4671 77.7287 52.3043 77.2694 51.5577 76.3506C50.8112 75.4174 50.438 74.1254 50.438 72.4744C50.438 70.8091 50.9332 69.3663 51.9238 68.146C52.9144 66.9257 54.1849 66.3156 55.7354 66.3156C58.9224 66.3156 60.516 68.1101 60.516 71.6992C60.516 73.3788 59.9992 74.8073 58.9655 75.9845C57.9319 77.1473 56.6255 77.7287 55.0463 77.7287ZM53.4958 68.6844C53.2374 69.517 53.1082 70.3497 53.1082 71.1823C53.1082 72.015 53.1369 72.661 53.1943 73.1204C53.2518 73.5798 53.3594 74.0392 53.5173 74.4986C53.8475 75.4318 54.4936 75.8983 55.4554 75.8983C56.4316 75.8983 57.0705 75.6399 57.372 75.1231C57.6878 74.6063 57.8457 73.8095 57.8457 72.7328C57.8457 69.6749 57.1207 68.146 55.6708 68.146C54.8381 68.146 54.1131 68.3255 53.4958 68.6844ZM64.1908 73.9603C64.1908 73.7018 64.1262 72.0222 63.997 68.9212C63.2935 68.9643 62.7336 69.0863 62.3173 69.2873C62.145 68.9715 62.0589 68.6413 62.0589 68.2967C62.0589 67.9522 62.1809 67.6723 62.425 67.4569C62.669 67.2272 62.9561 67.1124 63.2863 67.1124C63.6165 67.1124 63.8534 67.1195 63.997 67.1339C64.0687 65.5547 64.6214 64.2268 65.6551 63.1501C66.6887 62.0734 67.988 61.535 69.5528 61.535C70.7156 61.535 71.6129 61.98 72.2446 62.8701C73.2782 61.8365 74.52 61.3197 75.97 61.3197C76.8457 61.3197 77.5851 61.5063 78.188 61.8795C78.791 62.2528 79.0925 62.8055 79.0925 63.5377C79.0925 64.0545 78.8987 64.4924 78.511 64.8513C78.1234 65.2102 77.664 65.3896 77.1328 65.3896C77.018 65.3896 76.8744 65.3753 76.7022 65.3466C76.7452 65.1599 76.7668 64.9948 76.7668 64.8513C76.7668 64.3488 76.6591 63.9468 76.4438 63.6454C76.2284 63.3295 75.848 63.1716 75.3024 63.1716C74.7569 63.1716 74.2544 63.3295 73.795 63.6454C73.5079 64.033 73.2782 64.5713 73.1059 65.2604C72.9337 65.9495 72.8475 66.6243 72.8475 67.2846C74.1252 67.2846 75.4173 67.1339 76.7237 66.8324C76.896 67.1195 76.9821 67.4641 76.9821 67.8661C76.9821 68.2537 76.817 68.5767 76.4868 68.8351C76.1566 69.0935 75.7403 69.2227 75.2378 69.2227C75.2235 69.2227 74.4124 69.1222 72.8045 68.9212L73.0198 80.119C73.0198 81.0522 72.4671 81.5188 71.3617 81.5188C70.9884 81.5188 70.5003 81.4326 69.8973 81.2604C70.3711 79.3797 70.608 76.9463 70.608 73.9603C70.608 73.6588 70.5434 71.9576 70.4142 68.8566C68.634 68.8566 67.2917 68.871 66.3873 68.8997L66.6026 80.119C66.6026 81.0522 66.0499 81.5188 64.9445 81.5188C64.5712 81.5188 64.0831 81.4326 63.4801 81.2604C63.9539 79.3797 64.1908 76.9463 64.1908 73.9603ZM70.4142 67.2416C70.4285 66.5094 70.5721 65.7988 70.8448 65.1097C70.8161 64.6072 70.6439 64.1981 70.328 63.8822C70.0122 63.552 69.5528 63.3869 68.9498 63.3869C68.3612 63.3869 67.8372 63.5449 67.3778 63.8607C66.7462 64.6503 66.4303 65.7629 66.4303 67.1985C67.2773 67.2272 68.6053 67.2416 70.4142 67.2416Z" fill="black"/>
</svg>
