<svg width="277" height="277" viewBox="0 0 277 277" fill="none" xmlns="http://www.w3.org/2000/svg">
<path fill-rule="evenodd" clip-rule="evenodd" d="M0 138.5C0 128.829 0.991203 119.39 2.87756 110.278C12.3331 103.839 23.6836 98.8964 37.311 96.4946C61.258 92.274 92.464 95.86 133.062 113.34C174.162 131.036 202.824 132.407 222.585 123.799C242.419 115.159 252.609 96.7741 257.478 76.6446C258.009 74.446 258.479 72.2221 258.892 69.9821C270.416 90.1873 277 113.575 277 138.5C277 157.7 273.093 175.988 266.031 192.611C247.972 199.622 221.253 198.256 182.016 181.362C140.876 163.649 108.752 159.798 83.6813 164.216C58.5718 168.642 40.7665 181.324 28.2328 196.226C24.8198 200.284 21.7981 204.506 19.1244 208.77C6.97209 188.169 0 164.149 0 138.5ZM21.7911 213.106C46.4061 251.532 89.4789 277 138.5 277C193.578 277 241.146 244.85 263.463 198.294C244.051 204.155 217.159 201.438 180.22 185.533C139.623 168.054 108.417 164.468 84.4695 168.688C60.5617 172.902 43.662 184.936 31.708 199.149C27.9293 203.642 24.6442 208.354 21.7911 213.106ZM138.5 0C187.563 0 230.668 25.5117 255.272 63.9933C254.708 67.906 253.981 71.7847 253.064 75.5771C248.363 95.0145 238.766 111.797 220.771 119.636C202.703 127.506 175.494 126.665 134.857 109.169C93.7171 91.4556 61.5932 87.6039 36.5228 92.0225C24.0887 94.214 13.4458 98.4302 4.34716 103.938C19.7002 44.17 73.9419 0 138.5 0Z" fill="#370C09"/>
</svg>
