<svg width="101" height="101" viewBox="0 0 101 101" fill="none" xmlns="http://www.w3.org/2000/svg">
<path fill-rule="evenodd" clip-rule="evenodd" d="M50.5 0C78.3718 0 101 22.6282 101 50.5C101 78.3718 78.3718 101 50.5 101C22.6282 101 0 78.3718 0 50.5C0 22.6282 22.6282 0 50.5 0ZM91.1735 39.6762C65.1366 32.6609 30.986 44.8061 11.6908 66.7905C12.2547 68.1245 12.8817 69.4291 13.5761 70.6916L14.8007 69.3954L17.8391 72.3034L15.8696 74.4075C23.4657 85.3829 36.1496 92.5833 50.5 92.5833C73.73 92.5833 92.5833 73.73 92.5833 50.5L92.516 48.156C90.6854 47.7183 90.3445 47.6552 88.4045 47.2385L89.2882 43.1228L92.0405 43.7246C91.8132 42.3485 91.527 41.0018 91.1735 39.6762ZM27.0975 64.1266C23.2595 67.2323 22.0769 68.3139 20.7471 69.5006L17.9527 66.3528C21.311 63.3733 21.7865 63.0156 24.4504 60.8567L27.0975 64.1266ZM37.3447 57.2628C33.4941 59.5984 32.2863 60.4317 30.3337 61.7447L27.9938 58.2475C30.3463 56.6694 32.7366 55.1376 35.169 53.6647L37.3447 57.2628ZM82.8537 23.6003C75.1356 14.3252 63.4995 8.41667 50.5 8.41667C28.2674 8.41667 10.0411 25.6919 8.51767 47.5373L10.8491 49.8477L8.45454 52.2675C8.52188 53.9719 8.69442 55.6552 8.96375 57.2965C30.9397 36.0107 61.0713 25.7003 87.4828 30.4178C86.7253 29.0249 85.8921 27.6824 84.9873 26.3905L82.4707 25.9823L82.8537 23.6003ZM48.4211 51.8425C44.2127 53.6563 42.7567 54.3969 40.8713 55.3228L39.0155 51.5479C42.7398 49.7173 46.7504 47.9792 46.7504 47.9792L48.4211 51.8425ZM60.1371 48.097C55.6258 49.288 53.9677 49.8519 52.1707 50.4285L50.8788 46.4263C55.1965 45.0334 55.933 44.8566 59.064 44.0276L60.1371 48.097ZM72.2739 46.2833C69.5217 46.5442 66.7736 46.8724 64.0466 47.2933L63.3985 43.1354C67.75 42.4621 68.558 42.4074 71.8783 42.0918L72.2739 46.2833ZM20.3515 42.037C16.6818 44.7683 15.2889 45.9466 13.816 47.1628L11.1353 43.9224C14.3125 41.2922 17.8391 38.662 17.8391 38.662L20.3515 42.037ZM84.8653 42.4368L84.4991 46.6325C80.0341 46.237 79.7227 46.2538 76.2129 46.1402L76.356 41.936C80.8589 42.0833 80.5391 42.0623 84.8653 42.4368ZM30.8681 35.573C26.6093 37.9465 25.2921 38.784 23.6845 39.7772L21.4751 36.1917C25.3973 33.7761 25.7845 33.5867 28.8187 31.895L30.8681 35.573ZM42.1465 30.5988C38.3169 32.0843 39.2848 31.6761 34.4578 33.7845L32.7661 29.9297C35.3626 28.7934 37.9802 27.6993 40.6273 26.6724L42.1465 30.5988ZM54.0013 27.1732C49.1996 28.3305 47.5836 28.8313 45.9634 29.3068L44.7851 25.2668C48.9513 24.0422 49.6289 23.9033 53.0124 23.0827L54.0013 27.1732ZM66.1929 25.473C61.7615 25.8686 60.1076 26.1253 57.9403 26.4283L57.3512 22.2621C61.4375 21.6855 65.8141 21.2815 65.8141 21.2815L66.1929 25.473ZM78.7421 21.3615L78.4938 25.5656C74.0667 25.3005 72.2865 25.3089 70.1992 25.2963L70.2203 21.088C73.3849 21.1048 74.3655 21.1006 78.7421 21.3615Z" fill="#FFF5F5"/>
</svg>
